<?xml version="1.0" standalone="no"?>
<!DOCTYPE svg PUBLIC "-//W3C//DTD SVG 1.1//EN" "http://www.w3.org/Graphics/SVG/1.1/DTD/svg11.dtd" >
<svg xmlns="http://www.w3.org/2000/svg" xmlns:xlink="http://www.w3.org/1999/xlink" version="1.1">
<metadata>
Created by FontForge 20170731 at Fri Jun  3 11:59:16 2022
 By Aleksey,,,
copyright missing
</metadata>
<defs>
<font id="Santillana2017Bold-Bold" horiz-adv-x="1081" >
  <font-face 
    font-family="Santillana2017Bold Bold"
    font-weight="700"
    font-stretch="normal"
    units-per-em="2048"
    panose-1="0 0 8 0 0 0 0 0 0 0"
    ascent="1638"
    descent="-410"
    x-height="803"
    cap-height="1520"
    bbox="-639 -764 1787.56 1909"
    underline-thickness="102"
    underline-position="-307"
    unicode-range="U+0020-FB02"
  />
<missing-glyph horiz-adv-x="1267" 
d="M1040 1819v-2536h-804v2536h804zM844 1649h-418v-84h164v-95h-166v-81h420v81h-166v95h166v84zM678 1321h-254v-262h420v86h-166v176zM590 1235v-90h-82v90h82zM844 989h-420v-84h166v-92h-166v-84h254v176h166v84zM844 838h-84v-168h-336v-86h420v254zM844 528h-254
v-141h88v57h82v-118h-252v202h-84v-286h420v286zM844 90h-420v-287h420v287zM760 6v-119h-252v119h252zM844 -256h-420v-84h176l-176 -119v-84h420v84h-258l178 119h80v84z" />
    <glyph glyph-name=".notdef" horiz-adv-x="1267" 
d="M1040 1819v-2536h-804v2536h804zM844 1649h-418v-84h164v-95h-166v-81h420v81h-166v95h166v84zM678 1321h-254v-262h420v86h-166v176zM590 1235v-90h-82v90h82zM844 989h-420v-84h166v-92h-166v-84h254v176h166v84zM844 838h-84v-168h-336v-86h420v254zM844 528h-254
v-141h88v57h82v-118h-252v202h-84v-286h420v286zM844 90h-420v-287h420v287zM760 6v-119h-252v119h252zM844 -256h-420v-84h176l-176 -119v-84h420v84h-258l178 119h80v84z" />
    <glyph glyph-name=".null" horiz-adv-x="0" 
 />
    <glyph glyph-name="nonmarkingreturn" horiz-adv-x="682" 
 />
    <glyph glyph-name="space" unicode=" " horiz-adv-x="620" 
 />
    <glyph glyph-name="exclam" unicode="!" horiz-adv-x="458" 
d="M332 274q-28 0 -48 17.5t-20 48.5v1120q0 32 20 49t48 17q27 0 46 -17t19 -49v-1120q0 -31 -19.5 -48.5t-45.5 -17.5zM332 -57q-34 0 -60 26t-26 60t26 59t60 25t60 -25t26 -59t-26 -60t-60 -26z" />
    <glyph glyph-name="quotedbl" unicode="&#x22;" horiz-adv-x="557" 
d="M94 1098q-26 0 -46.5 18t-20.5 47q0 13 2 21l55 225q12 51 63 51q32 0 54.5 -23.5t15.5 -58.5l-61 -231q-6 -24 -23 -36.5t-39 -12.5zM270 1100q-26 0 -45.5 17.5t-19.5 45.5q0 13 2 21l55 225q6 25 23 38t39 13q31 0 52.5 -23.5t14.5 -58.5l-61 -231q-6 -23 -22.5 -35
t-37.5 -12z" />
    <glyph glyph-name="numbersign" unicode="#" horiz-adv-x="174" 
d="M-31 307q-37 19 -37 55q0 15 11 33l106 185q15 26 41.5 32t50.5 -8q24 -13 31.5 -40t-6.5 -50l-107 -182q-35 -53 -90 -25z" />
    <glyph glyph-name="dollar" unicode="$" horiz-adv-x="1058" 
d="M492 -90q-27 0 -46.5 16.5t-19.5 48.5v19q-154 23 -249.5 129t-110.5 270v-4q-6 35 14 56.5t49 21.5q25 0 43.5 -14.5t24.5 -42.5q6 -41 13.5 -70.5t24 -66.5t39.5 -62.5t62 -48t90 -33.5v664q-33 14 -54.5 24t-57 30t-60 40t-53 50.5t-45.5 63.5t-29 78.5t-12 96.5
q0 126 91 231.5t220 128.5v27q0 32 19.5 48.5t46.5 16.5t46 -16.5t19 -48.5v-25q109 -15 190 -74t125 -157q7 -17 7 -31q0 -28 -20.5 -46t-47.5 -18q-42 0 -61 39q-31 68 -77 104t-116 48v-524q194 -97 283.5 -212t83.5 -264q-9 -185 -106.5 -293.5t-260.5 -119.5v-15
q0 -32 -19 -48.5t-46 -16.5zM426 940v461q-70 -22 -124 -88t-54 -133q0 -94 46.5 -147t131.5 -93zM557 123q120 13 172 78t64 213q12 179 -236 315v-606z" />
    <glyph glyph-name="percent" unicode="%" horiz-adv-x="1251" 
d="M256 -29q-28 0 -50 19.5t-22 46.5q0 13 11 35v-2l749 1421q17 35 55 35q27 0 47.5 -19.5t20.5 -46.5q0 -17 -8 -33l-748 -1421q-20 -35 -55 -35zM504 1133q-77 0 -133 54.5t-56 129.5q0 76 56 131t133 55q76 0 131 -54.5t55 -131.5q0 -75 -55 -129.5t-131 -54.5z
M504 1257q23 0 42 18t19 38q0 23 -20 44t-41 21q-22 0 -41 -19t-19 -42q0 -22 19 -41t41 -19zM752 -31q-77 0 -132 55.5t-55 133.5q0 76 55 131t132 55t132.5 -55t55.5 -131q0 -78 -55 -133.5t-133 -55.5zM752 98q24 0 42.5 16.5t18.5 37.5q0 22 -20.5 44.5t-40.5 22.5
q-22 0 -42 -19.5t-20 -41.5t19.5 -41t42.5 -19z" />
    <glyph glyph-name="ampersand" unicode="&#x26;" horiz-adv-x="1484" 
d="M612 -43q-184 0 -306 113.5t-122 285.5q0 275 326 504l-70 90q-99 125 -90 271q6 120 101 205t223 85q129 0 218 -87t89 -216q0 -218 -260 -372l-19 -11l322 -415q52 120 61 274q0 29 20 46.5t46 17.5q27 0 46.5 -18.5t19.5 -51.5q-11 -209 -107 -377l174 -223
q16 -19 16 -43q0 -27 -19 -46.5t-46 -19.5q-28 0 -53 25l-150 194q-95 -112 -212 -171.5t-208 -59.5zM621 932l30 18q105 62 152 122.5t47 135.5q0 23 -2 35q-6 58 -56 97.5t-118 39.5q-74 0 -132 -48.5t-61 -114.5q-3 -56 10.5 -96t51.5 -89zM612 88q79 0 174 50.5
t168 148.5l-360 467q-144 -101 -211.5 -200t-67.5 -208q0 -116 82 -187t215 -71z" />
    <glyph glyph-name="quotesingle" unicode="'" horiz-adv-x="493" 
d="M156 1139q0 -25 -13.5 -41.5t-32.5 -20.5t-38.5 0.5t-33 21.5t-13.5 42v235q0 30 20.5 47.5t45 17.5t45 -17.5t20.5 -47.5v-237z" />
    <glyph glyph-name="parenleft" unicode="(" horiz-adv-x="602" 
d="M348 -100q-22 0 -41 16q-121 109 -193.5 339.5t-72.5 494.5q0 243 65.5 457t198.5 352q18 18 45 18q26 0 47 -22t21 -48t-21 -47q-114 -112 -170.5 -300.5t-56.5 -407.5q0 -240 62 -447t163 -289q23 -20 23 -47t-21 -48t-49 -21z" />
    <glyph glyph-name="parenright" unicode=")" horiz-adv-x="749" 
d="M254 -102q-27 0 -47.5 21t-20.5 48q0 30 25 49q101 82 162 286.5t61 445.5q0 219 -56.5 409t-170.5 303q-23 20 -23 47q0 28 21 49t49 21q24 0 45 -21q133 -136 199.5 -351.5t66.5 -459.5q0 -264 -72.5 -493t-195.5 -336q-21 -18 -43 -18z" />
    <glyph glyph-name="asterisk" unicode="*" horiz-adv-x="718" 
d="M379 831q-26 0 -45 17.5t-19 46.5v70l-49 -50q-21 -18 -45 -18q-26 0 -45.5 19.5t-19.5 44.5t18 43l49 49h-67q-30 0 -47 19t-17 44q0 27 16.5 45.5t47.5 18.5h67l-49 49q-18 18 -18 43q0 26 20.5 46.5t46.5 20.5q22 0 43 -18l49 -49v67q0 31 18.5 47.5t45.5 16.5
q25 0 43 -17t18 -47v-67l49 49q18 18 43 18t45.5 -20.5t20.5 -46.5q0 -25 -18 -43l-50 -49h70q29 0 45.5 -19t16.5 -45q0 -25 -16.5 -44t-45.5 -19h-70l50 -49q18 -18 18 -43q0 -27 -18.5 -46.5t-44.5 -19.5t-46 20l-49 50v-70q0 -29 -18 -46.5t-43 -17.5z" />
    <glyph glyph-name="plus" unicode="+" horiz-adv-x="1185" 
d="M250 588q-31 0 -49 20.5t-18 45t18 45t49 20.5h278v276q0 31 20.5 49t45 18t45 -18t20.5 -49v-276h277q31 0 49 -20.5t18 -45t-18 -45t-49 -20.5h-277v-279q0 -31 -20.5 -49t-45 -18t-45 18t-20.5 49v279h-278z" />
    <glyph glyph-name="comma" unicode="," horiz-adv-x="354" 
d="M135 -123q-30 0 -52 22.5t-22 49.5q0 33 41 57q14 9 45 58t31 69q6 28 25 42.5t43 14.5q30 0 50.5 -20t16.5 -53q-9 -61 -52.5 -129.5t-94.5 -102.5q-16 -8 -31 -8z" />
    <glyph glyph-name="hyphen" unicode="-" horiz-adv-x="620" 
d="M78 344q-32 0 -50 20.5t-18 47.5q0 28 18 47.5t50 19.5h272q32 0 49 -19.5t17 -47.5q0 -27 -17 -47.5t-49 -20.5h-272z" />
    <glyph glyph-name="period" unicode="." horiz-adv-x="315" 
d="M197 -29q-38 0 -66.5 28.5t-28.5 66.5q0 40 28 68t67 28q41 0 69.5 -28t28.5 -68t-28.5 -67.5t-69.5 -27.5z" />
    <glyph glyph-name="slash" unicode="/" horiz-adv-x="911" 
d="M391 -102q-30 0 -51.5 21t-15.5 56l256 1436q4 26 22 39.5t41 13.5q30 0 52 -21.5t16 -56.5l-256 -1435q-4 -26 -22 -39.5t-42 -13.5z" />
    <glyph glyph-name="zero" unicode="0" horiz-adv-x="1191" 
d="M582 1542q118 0 216.5 -105.5t155 -287t56.5 -397.5t-56.5 -398t-155 -287.5t-216.5 -105.5q-119 0 -218 106t-155.5 287.5t-56.5 397.5q0 217 56.5 398.5t155.5 286.5t218 105zM582 1409q-78 0 -146 -88.5t-108.5 -240.5t-40.5 -328q0 -175 40.5 -327t108.5 -240.5
t146 -88.5t146 88.5t108.5 240.5t40.5 327q0 176 -40.5 328t-108.5 240.5t-146 88.5z" />
    <glyph glyph-name="one" unicode="1" horiz-adv-x="884" 
d="M123 997l450 494q36 33 74 33q25 0 44.5 -19.5t19.5 -44.5v-1431q0 -31 -20.5 -49t-45 -18t-45 18t-20.5 49v1265l-359 -391q-22 -21 -49.5 -19t-44.5 20.5t-22 43t18 49.5z" />
    <glyph glyph-name="two" unicode="2" horiz-adv-x="1191" 
d="M160 68l667 864q60 78 60 176q0 123 -85 209t-208 86t-209 -86t-86 -209q0 -31 -21 -49t-46.5 -18t-46.5 18t-21 49q0 177 125.5 301.5t304.5 124.5q177 0 301.5 -124.5t124.5 -301.5q0 -140 -86 -256l-582 -756h623q31 0 49 -21t18 -46.5t-18 -46.5t-49 -21h-758
q-41 0 -60 36t3 71z" />
    <glyph glyph-name="three" unicode="3" horiz-adv-x="1191" 
d="M162 381q0 30 20 48t45 18t46 -17t22 -47q0 -123 86 -209t209 -86t209 85.5t86 207.5q0 123 -86 209t-209 88q-39 0 -53.5 33t1.5 65.5t52 32.5q123 0 209 85.5t86 207.5q0 123 -86 209t-209 86t-208.5 -86t-84.5 -209q0 -30 -20.5 -48t-45.5 -18t-46.5 17t-22.5 47
q0 180 124.5 305t303.5 125q177 0 301.5 -125.5t124.5 -302.5q0 -109 -52.5 -205t-144.5 -156q92 -59 144.5 -154.5t52.5 -205.5q0 -115 -57 -213t-155 -156t-214 -59q-177 -1 -302.5 124t-125.5 304z" />
    <glyph glyph-name="four" unicode="4" horiz-adv-x="1157" 
d="M143 770v700q0 31 20.5 49t45 18t45 -18t20.5 -49v-669h578v669q0 31 20.5 49t45 18t45 -18t20.5 -49v-1470q0 -31 -20.5 -49t-45 -18t-45 18t-20.5 49v670h-610q-99 0 -99 100z" />
    <glyph glyph-name="five" unicode="5" horiz-adv-x="1163" 
d="M154 770v660q0 98 100 98h680q31 0 49 -21t18 -45.5t-18 -45.5t-49 -21h-645v-590h299q201 0 312 -107.5t110 -300.5q-2 -203 -117.5 -323.5t-308.5 -120.5q-246 0 -414 125q-20 16 -24.5 37t4.5 38t25 30t37.5 12t41.5 -15q5 -4 14 -10t40.5 -22t67 -28t91.5 -22
t115 -10q136 0 215.5 83t79.5 226q0 273 -283 273h-342q-98 0 -98 100z" />
    <glyph glyph-name="six" unicode="6" horiz-adv-x="1191" 
d="M178 389v361q0 377 118 581.5t337 204.5q120 0 219 -64t156 -178q10 -23 5.5 -44t-21 -33t-35 -16.5t-38 5t-30.5 31.5q-87 166 -256 166q-153 0 -236.5 -168t-83.5 -481v-45q123 110 293 110q177 0 302.5 -126.5t125.5 -303.5t-125.5 -303.5t-302.5 -126.5t-302.5 126
t-125.5 304zM313 389q0 -121 85.5 -207t207.5 -86q121 0 206 85.5t85 207.5t-85 207.5t-206 85.5q-122 0 -207.5 -86t-85.5 -207z" />
    <glyph glyph-name="seven" unicode="7" horiz-adv-x="1196" 
d="M184 1524h734q44 0 65 -33.5t6 -79.5l-151 -606l106 2q40 0 56.5 -33.5t1 -67.5t-55.5 -34h-141l-170 -666q-7 -29 -31 -41.5t-48.5 -7t-41.5 26.5t-12 51l162 637l-105 -2q-24 0 -40.5 14t-20.5 34t-0.5 39.5t19.5 33.5t40 14h139l142 586l-652 -2q-40 0 -56.5 33
t-1 66.5t55.5 35.5z" />
    <glyph glyph-name="eight" unicode="8" horiz-adv-x="1165" 
d="M158 385q0 109 53 204.5t147 155.5q-94 60 -147 156.5t-53 206.5q0 116 57 214t156 155.5t217 58.5q178 -2 303 -126.5t125 -301.5q0 -109 -53.5 -206t-145.5 -157q92 -59 145.5 -155t53.5 -205q0 -178 -125.5 -304t-302.5 -126q-178 0 -304 125.5t-126 304.5zM293 1108
q0 -123 86 -209t209 -86t209 86t86 209q0 122 -86 208t-209 87q-123 -1 -209 -87t-86 -208zM293 385q0 -123 86 -209t209 -86t209 86t86 209t-86 209t-209 86t-209 -86t-86 -209z" />
    <glyph glyph-name="nine" unicode="9" horiz-adv-x="1155" 
d="M135 1102q0 177 124.5 301.5t301.5 124.5t301.5 -124.5t124.5 -301.5q0 -179 1 -538.5t1 -538.5q0 -29 -21 -45.5t-45.5 -16.5t-45.5 16.5t-21 45.5v768q-54 -52 -133 -83.5t-162 -31.5q-177 0 -301.5 124.5t-124.5 299.5zM266 1102q0 -120 87.5 -206.5t209.5 -86.5
q121 0 207 85.5t86 207.5q0 123 -85 209t-208 86t-210 -86.5t-87 -208.5z" />
    <glyph glyph-name="colon" unicode=":" horiz-adv-x="407" 
d="M293 324q-40 0 -69 28t-29 66t30 67t68 29t66 -29t28 -67t-28 -66t-66 -28zM293 -29q-40 0 -69 29.5t-29 69.5q0 38 29 66t69 28q38 0 66 -28t28 -66q0 -41 -27 -70t-67 -29z" />
    <glyph glyph-name="semicolon" unicode=";" horiz-adv-x="432" 
d="M317 332q-40 0 -69 29t-29 67t29 66t69 28q38 0 66.5 -28t28.5 -66t-28.5 -67t-66.5 -29zM205 -127q-30 0 -51 22.5t-21 49.5q0 41 41 55q11 5 42.5 57t31.5 70v6q11 53 67 53q30 0 51 -20t17 -53q-9 -60 -51.5 -127.5t-93.5 -104.5l-9 -4q-16 -4 -24 -4z" />
    <glyph glyph-name="less" unicode="&#x3c;" horiz-adv-x="894" 
d="M207 702l389 283q38 31 74.5 15.5t39 -50.5t-29.5 -63l-320 -230l320 -233q34 -24 29 -63t-36.5 -51.5t-76.5 14.5l-381 276q-28 22 -30.5 51t22.5 51z" />
    <glyph glyph-name="equal" unicode="=" horiz-adv-x="1185" 
d="M250 711q-31 0 -49 20.5t-18 45t18 45t49 20.5h686q31 0 49 -20.5t18 -45t-18 -45t-49 -20.5h-686zM250 461q-31 0 -49 20.5t-18 45t18 45t49 20.5h686q31 0 49 -20.5t18 -45t-18 -45t-49 -20.5h-686z" />
    <glyph glyph-name="greater" unicode="&#x3e;" horiz-adv-x="894" 
d="M215 424l320 233l-320 230q-35 24 -29 62.5t38.5 50.5t74.5 -15l389 -283q25 -22 22.5 -51t-30.5 -51l-381 -276q-41 -31 -76.5 -15t-36.5 51.5t29 63.5z" />
    <glyph glyph-name="question" unicode="?" horiz-adv-x="1048" 
d="M522 231q-75 0 -125.5 45.5t-50.5 116.5q0 61 29 114t75 93t102 78.5t112 79t102 86t75 109t29 137.5q0 64 -21 115t-55.5 83t-81 53.5t-94 30t-98.5 8.5q-59 0 -110.5 -11.5t-82.5 -31t-30 -41.5l-2 -8q-12 -51 -68 -51q-25 0 -44 15.5t-19 43.5q0 13 2 21
q23 83 131.5 134.5t245.5 51.5q88 0 168 -24t148 -73.5t108.5 -135t40.5 -197.5q0 -96 -31 -176t-79.5 -134t-107 -98.5t-116 -77.5t-103.5 -62.5t-71.5 -62.5t-18.5 -69q5 -37 21 -37q6 0 26 6t35 9l-4 -2q10 4 27 4q27 0 43 -19t16 -45q0 -48 -47 -65q-44 -13 -76 -13z
M508 -10q-37 0 -62.5 26t-25.5 64q0 37 25.5 62.5t62.5 25.5t61.5 -25.5t24.5 -62.5q0 -38 -24.5 -64t-61.5 -26z" />
    <glyph glyph-name="at" unicode="@" horiz-adv-x="1796" 
d="M971 -305q-125 0 -231.5 21.5t-181.5 55.5t-136.5 83.5t-99.5 98t-66 107t-41 102.5t-21 92.5t-9 69.5t-1 40q0 53 9.5 114t33 133.5t59 140.5t93 132.5t129 112.5t172.5 77t219 29q153 0 277 -40.5t203.5 -106.5t133.5 -153t76.5 -175.5t22.5 -179.5q0 -45 -6 -89
q-9 -66 -46.5 -150.5t-80.5 -133.5q-43 -51 -96.5 -81t-102.5 -30q-58 0 -95.5 43t-51.5 119q-72 -77 -166 -120.5t-189 -43.5q-149 0 -240.5 105t-91.5 274q0 204 130 335.5t331 131.5q132 0 219 -80q0 39 20 59.5t48 20.5t48 -20t20 -48v-538q0 -101 36 -101q25 0 88 70
q66 79 91 207q6 35 6 74q0 67 -17.5 135t-60.5 138t-106 124t-164 88.5t-226 34.5q-135 0 -242.5 -42.5t-171.5 -107.5t-106.5 -149.5t-58 -160t-15.5 -148.5q0 -24 2 -50.5t15.5 -83.5t36.5 -105.5t72.5 -106.5t116 -98t174 -67.5t239.5 -27.5q33 0 52 -19.5t19 -46.5
t-19 -46t-52 -19zM797 100q77 0 151.5 46.5t121 122t46.5 153.5q0 117 -56.5 184.5t-154.5 67.5q-145 0 -234 -92t-89 -240q0 -242 215 -242z" />
    <glyph glyph-name="A" unicode="A" horiz-adv-x="1120" 
d="M106 -33q-28 0 -48.5 18.5t-20.5 47.5q0 6 4 22l446 1418q15 47 64 47q20 0 38 -12t25 -33v-2l445 -1420q4 -16 4 -22q0 -28 -21 -46t-49 -18q-47 0 -61 49l-117 373h-528l-117 -375q-14 -47 -64 -47zM328 520h448l-225 717z" />
    <glyph glyph-name="B" unicode="B" horiz-adv-x="1101" 
d="M127 -35q-26 0 -46 20t-20 46v1423q0 66 66 66h354q83 0 152 -21t116.5 -57t80.5 -84.5t48 -103t15 -113.5q0 -105 -46.5 -201.5t-129.5 -155.5q118 -63 182 -174t64 -235q0 -80 -28.5 -152.5t-83 -130.5t-143.5 -92.5t-202 -34.5h-379zM193 844h272q137 0 220 90t83 205
q0 105 -73.5 177.5t-213.5 72.5h-288v-545zM193 96h313q160 0 246 82t86 199q0 62 -25 121t-71.5 107t-120 77.5t-162.5 30.5h-266v-617z" />
    <glyph glyph-name="C" unicode="C" horiz-adv-x="1056" 
d="M528 -35q-234 0 -352.5 195.5t-118.5 580.5q0 157 41.5 301.5t111.5 250t166.5 168.5t201.5 63q113 0 207.5 -88t107.5 -207q3 -33 -18.5 -52.5t-51.5 -19.5q-25 0 -44.5 16.5t-20.5 45.5q-6 63 -65.5 117.5t-119.5 54.5q-95 0 -184.5 -89.5t-145 -237t-55.5 -306.5
q0 -346 81.5 -501t262.5 -157q86 0 149 42t114 134q17 35 55 35q27 0 48.5 -19.5t21.5 -47.5q0 -15 -9 -33q-61 -118 -161 -182t-222 -64z" />
    <glyph glyph-name="D" unicode="D" horiz-adv-x="1204" 
d="M133 -35q-70 0 -70 66v1423q0 31 19 48.5t51 17.5h313q80 1 162.5 -24.5t164.5 -86t145.5 -148t102.5 -221.5t38 -295q0 -149 -41 -280t-106 -220.5t-146.5 -154t-162.5 -95t-154 -30.5h-316zM199 96h250q53 0 115 23.5t127 76t117.5 126t86 184t33.5 239.5
q-3 290 -135.5 465.5t-346.5 175.5h-247v-1290z" />
    <glyph glyph-name="E" unicode="E" horiz-adv-x="921" 
d="M117 -37q-29 0 -47.5 18.5t-18.5 47.5v1423q0 31 17.5 48.5t48.5 17.5h612q32 0 50 -19.5t18 -46.5t-18 -46.5t-50 -19.5h-547v-604h545q31 0 48.5 -19.5t17.5 -45.5q0 -28 -17.5 -48t-48.5 -20h-545v-551h547q32 0 49 -19.5t17 -47.5t-17 -48t-49 -20h-612z" />
    <glyph glyph-name="F" unicode="F" horiz-adv-x="933" 
d="M121 -39q-27 0 -47.5 17t-20.5 49v1427q0 31 17.5 48.5t48.5 17.5h645q32 0 49.5 -19.5t17.5 -46.5q0 -28 -17.5 -48t-49.5 -20h-576v-585h549q32 0 49 -19.5t17 -46.5q0 -28 -17 -47.5t-49 -19.5h-549v-641q0 -32 -19.5 -49t-47.5 -17z" />
    <glyph glyph-name="G" unicode="G" horiz-adv-x="1124" 
d="M526 -37q-219 0 -341 206.5t-122 578.5q0 219 65.5 395.5t181 275.5t259.5 99q82 0 150.5 -33.5t110 -84.5t65 -101.5t29.5 -94.5q4 -35 -17 -55.5t-51 -20.5q-23 0 -41 14t-22 42q-12 85 -76.5 142.5t-147.5 57.5q-38 0 -78 -14t-83 -43.5t-80.5 -80.5t-67.5 -118.5
t-47.5 -165.5t-17.5 -214q0 -305 87 -477.5t240 -172.5q156 2 236 134t90 407h-182q-31 0 -48.5 20t-17.5 48q0 26 17.5 45.5t48.5 19.5h247q32 0 51 -18t19 -49q2 -359 -115.5 -550.5t-341.5 -191.5z" />
    <glyph glyph-name="H" unicode="H" horiz-adv-x="1089" 
d="M127 -35q-27 0 -46.5 18t-19.5 50v1423q0 32 19.5 49t46.5 17t46.5 -17t19.5 -49v-637h591v637q0 32 20 49t48 17q27 0 46.5 -17t19.5 -49v-1423q0 -32 -19.5 -50t-46.5 -18q-28 0 -48 18t-20 50v655h-591v-655q0 -32 -19.5 -50t-46.5 -18z" />
    <glyph glyph-name="I" unicode="I" horiz-adv-x="565" 
d="M106 -35q-32 0 -49.5 19.5t-17.5 46.5t17.5 46t49.5 19h74v1293h-74q-31 0 -48 18.5t-17 44.5q0 27 18 47.5t47 20.5h279q29 0 46.5 -20.5t17.5 -47.5t-16.5 -45t-47.5 -18h-74v-1293h74q32 0 49 -19t17 -46t-17 -46.5t-49 -19.5h-279z" />
    <glyph glyph-name="J" unicode="J" horiz-adv-x="1204" 
d="M541 -35q-208 0 -341.5 131.5t-129.5 333.5q0 31 19 48.5t44 17.5q29 0 48.5 -19.5t19.5 -54.5q0 -148 95 -237t249 -89q160 0 260.5 92.5t99.5 241.5v1028q0 31 19.5 48.5t46.5 17.5q26 0 45.5 -17.5t19.5 -48.5v-1028q0 -202 -139 -332.5t-356 -132.5z" />
    <glyph glyph-name="K" unicode="K" horiz-adv-x="1093" 
d="M129 -37q-27 0 -47.5 18t-20.5 50v1423q0 32 20.5 49t47.5 17q28 0 48 -17t20 -49v-575l628 624q21 21 45 21q28 0 48 -21t20 -49q0 -24 -18 -45l-467 -467l532 -874q12 -18 12 -37q0 -27 -21 -46.5t-48 -19.5q-37 0 -54 35l-518 844l-159 -158v-655q0 -32 -20 -50
t-48 -18z" />
    <glyph glyph-name="L" unicode="L" horiz-adv-x="944" 
d="M123 -35q-31 0 -48.5 18.5t-17.5 49.5v1421q0 32 19.5 50t46.5 18t46 -18t19 -50v-1354h623q32 0 49 -20t17 -47t-17 -47.5t-49 -20.5h-688z" />
    <glyph glyph-name="M" unicode="M" horiz-adv-x="1353" 
d="M141 -35q-27 0 -47 17t-20 49v1423q0 31 20.5 50.5t48.5 19.5q35 0 50 -27l436 -604l438 604q21 27 51 27q27 0 47.5 -19.5t20.5 -50.5v-1423q0 -32 -19.5 -49t-46.5 -17t-46 17t-19 49v1222l-373 -514q-22 -28 -53 -28q-32 0 -54 28l-366 510v-1218q0 -32 -20 -49
t-48 -17z" />
    <glyph glyph-name="N" unicode="N" horiz-adv-x="1200" 
d="M141 -35q-27 0 -47 17t-20 49v1427q0 29 19.5 46.5t47.5 17.5q39 0 58 -31l700 -1210v1177q0 31 20 48.5t48 17.5q26 0 45.5 -17.5t19.5 -48.5v-1427q0 -29 -20.5 -47.5t-46.5 -18.5q-41 0 -58 35l-698 1208v-1177q0 -32 -20 -49t-48 -17z" />
    <glyph glyph-name="O" unicode="O" horiz-adv-x="1126" 
d="M549 -37q-92 0 -166 28.5t-124 74.5t-87.5 114t-58 136t-33 152.5t-16 151t-3.5 142.5q0 345 131 550.5t355 205.5q209 0 325.5 -210t116.5 -581q0 -377 -110 -570.5t-330 -193.5zM559 94q139 0 218 169t79 464q-3 300 -87.5 479.5t-221.5 179.5q-157 -2 -253.5 -174
t-96.5 -450q0 -342 88 -505t274 -163z" />
    <glyph glyph-name="P" unicode="P" horiz-adv-x="1062" 
d="M127 -35q-27 0 -46.5 17t-19.5 49v1423q0 66 66 66h379q203 8 311.5 -90.5t108.5 -290.5q0 -91 -24.5 -165.5t-66 -122.5t-91 -82.5t-105.5 -52t-102.5 -24.5t-87.5 -6h-256v-655q0 -32 -19.5 -49t-46.5 -17zM193 817h256q169 5 256.5 83.5t87.5 227.5q0 53 -9 95t-24 69
t-37.5 46t-44.5 28.5t-51 14.5t-51.5 6.5t-51.5 1.5h-16h-315v-572z" />
    <glyph glyph-name="Q" unicode="Q" horiz-adv-x="1130" 
d="M856 -98q-141 9 -223 100q-18 -4 -74 -10q-94 1 -170.5 30t-127 74.5t-88.5 113.5t-58.5 134.5t-32.5 150.5t-15.5 149.5t-3.5 143.5q0 353 128 557.5t352 204.5q215 0 330.5 -208t115.5 -590q0 -533 -223 -691q35 -30 94 -24q31 -3 47.5 -23t16.5 -47q0 -28 -18 -47
t-50 -18zM446 143q-28 17 -28 58q0 29 18 47t51 14h-2q112 -9 195 -100q86 54 132 208.5t46 381.5q0 304 -84.5 483.5t-224.5 179.5q-161 -2 -255.5 -170.5t-94.5 -456.5q0 -289 59.5 -446.5t187.5 -198.5z" />
    <glyph glyph-name="R" unicode="R" 
d="M129 -37q-27 0 -47.5 17t-20.5 49v1423q0 32 19 51t51 19h377q420 0 420 -389q0 -164 -86 -278.5t-240 -154.5l354 -639q11 -22 11 -32q0 -27 -21.5 -45.5t-48.5 -18.5q-39 0 -57 33l-379 686h-264v-655q0 -32 -20 -49t-48 -17zM197 819h299q151 19 224 96t73 218
q-1 72 -18.5 122t-41.5 75t-64 38t-67.5 15.5t-71.5 2.5h-20h-313v-567z" />
    <glyph glyph-name="S" unicode="S" horiz-adv-x="1058" 
d="M516 -35q-196 1 -313.5 101.5t-136.5 271.5q-6 33 14.5 54.5t50.5 21.5q23 0 41.5 -14t24.5 -42q7 -34 12 -56t16.5 -52.5t25.5 -50t38 -41t54.5 -34t74.5 -20.5t98 -8q148 0 206 54.5t71 209.5q9 110 -75 211t-253 183q-12 6 -43 19.5t-54 24t-57 30t-59 39t-52 49
t-44.5 62.5t-29 77.5t-11.5 95.5q0 94 50.5 179t136.5 137t183 53q134 3 234.5 -58.5t152.5 -179.5q14 -38 -7.5 -66t-55.5 -28q-39 0 -59 41q-38 83 -101.5 120t-165.5 37q-86 0 -160.5 -73.5t-74.5 -157.5q0 -30 5 -55.5t16 -47t22 -38.5t31 -33t34.5 -26.5t40.5 -23.5
t40.5 -20t43.5 -19t41 -18q200 -96 304 -229t98 -291q-9 -189 -114 -289t-294 -100z" />
    <glyph glyph-name="T" unicode="T" horiz-adv-x="1148" 
d="M547 -37q-27 0 -47.5 17t-20.5 49v1360h-350q-31 0 -48.5 19.5t-17.5 47.5q0 27 17.5 46.5t48.5 19.5h838q32 0 48.5 -19.5t16.5 -46.5q0 -28 -16.5 -47.5t-48.5 -19.5h-353v-1360q0 -32 -19.5 -49t-47.5 -17z" />
    <glyph glyph-name="U" unicode="U" horiz-adv-x="1169" 
d="M512 -35q-37 0 -75 5.5t-83 20.5t-85.5 38t-79 60.5t-66 84.5t-44 114.5t-16.5 147.5v1018q0 32 20.5 50t47.5 18q28 0 48 -18t20 -50v-1018q2 -170 79 -253t240 -87q46 0 90 8t93.5 31t86 59t60.5 98.5t24 143.5v1022q0 31 20 48.5t48 17.5q27 0 46.5 -17.5t19.5 -48.5
v-1022q0 -111 -37 -198t-91 -136.5t-124.5 -82t-129 -43.5t-112.5 -11z" />
    <glyph glyph-name="V" unicode="V" horiz-adv-x="1177" 
d="M571 -39q-20 0 -38 12.5t-25 34.5q-454 1448 -453 1450q0 28 21 46t47 18q46 0 61 -45l387 -1235l400 1237q14 43 59 43q28 0 49 -18.5t21 -47.5l-465 -1448q-15 -47 -64 -47z" />
    <glyph glyph-name="W" unicode="W" horiz-adv-x="1792" 
d="M604 -35q-46 0 -61 47l-447 1428q-8 25 1.5 50.5t37.5 33.5q34 10 56 -4.5t30 -42.5l387 -1229l191 581q15 45 63 45q23 0 40.5 -12.5t21.5 -34.5l182 -581l399 1231q14 43 60 43q27 0 47 -17.5t20 -44.5q0 -20 -154 -493q-167 -515 -309 -955q-15 -45 -65 -45
q-47 0 -62 45l-182 582l-192 -580q-6 -22 -24 -34.5t-40 -12.5z" />
    <glyph glyph-name="X" unicode="X" horiz-adv-x="1191" 
d="M137 -35q-27 0 -48 19t-21 45q0 21 12 39l407 677q-106 177 -244 405q-125 206 -148 247t-23 59q0 27 21.5 46.5t49.5 19.5q35 0 54 -31l372 -614l371 614q20 33 55 33q27 0 48.5 -20t21.5 -48q0 -16 -17 -47t-119 -198q-152 -249 -282 -466l412 -677q10 -23 10 -37
q0 -27 -21.5 -46.5t-48.5 -19.5q-35 0 -55 35l-375 616l-374 -618q-20 -33 -58 -33z" />
    <glyph glyph-name="Y" unicode="Y" horiz-adv-x="1161" 
d="M565 -35q-27 0 -47 17t-20 49v696l-420 694q-10 15 -10 35q0 27 21.5 46.5t49.5 19.5q35 0 54 -31l374 -614l369 614q20 33 55 33q27 0 48.5 -20t21.5 -48q0 -13 -10 -33l-418 -696v-696q0 -32 -20 -49t-48 -17z" />
    <glyph glyph-name="Z" unicode="Z" horiz-adv-x="1200" 
d="M133 -35q-30 0 -50 19.5t-20 46.5q0 13 11 35l800 1323h-741q-31 0 -48 19t-17 46t17 46.5t48 19.5h860q28 0 47 -19t19 -45q0 -18 -10 -35l-797 -1321h739q32 0 50 -19.5t18 -47.5t-18 -48t-50 -20h-858z" />
    <glyph glyph-name="bracketleft" unicode="[" horiz-adv-x="620" 
d="M168 -66q-31 0 -48.5 19t-17.5 51v1489q0 32 17.5 51t48.5 19h199q32 0 48.5 -19.5t16.5 -48.5q0 -27 -16.5 -47.5t-48.5 -20.5h-134v-1357h138q32 0 48.5 -19.5t16.5 -48.5t-16.5 -48.5t-48.5 -19.5h-203z" />
    <glyph glyph-name="backslash" unicode="\" horiz-adv-x="575" 
d="M506 -27q-46 0 -60 45q-447 1411 -446 1414q0 28 21 45.5t47 17.5q47 0 61 -47q447 -1408 446 -1411q0 -28 -20.5 -46t-48.5 -18z" />
    <glyph glyph-name="bracketright" unicode="]" horiz-adv-x="600" 
d="M229 -66q-31 0 -48 20t-17 48t17 48t48 20h138v1357h-134q-30 0 -47.5 20.5t-17.5 47.5q0 28 17 48t48 20h199q31 0 48.5 -19t17.5 -51v-1489q0 -32 -17.5 -51t-48.5 -19h-203z" />
    <glyph glyph-name="asciicircum" unicode="^" horiz-adv-x="1114" 
d="M985 733q-33 0 -55 31l-381 575l-383 -573q-19 -31 -53 -31q-27 0 -48.5 19.5t-21.5 46.5q0 19 14 39l445 665q21 27 49 27q13 0 28 -8t19 -21l442 -663q15 -21 15 -41q0 -27 -21.5 -46.5t-48.5 -19.5z" />
    <glyph glyph-name="underscore" unicode="_" horiz-adv-x="929" 
d="M76 344q-31 0 -48.5 19.5t-17.5 46.5q0 26 17.5 45.5t48.5 19.5h583q32 0 49 -19t17 -46t-17 -46.5t-49 -19.5h-583z" />
    <glyph glyph-name="grave" unicode="`" horiz-adv-x="471" 
d="M180 913q-31 0 -53 31l-135 195q-10 15 -10 37q0 27 21 46t48 19q31 0 51 -29l131 -194q15 -18 15 -39q0 -26 -21 -46t-47 -20z" />
    <glyph glyph-name="a" unicode="a" 
d="M270 -37q-149 0 -240 105t-91 274q0 204 129.5 335.5t330.5 131.5q132 0 219 -80v12q0 28 20 48t48 20t48 -20t20 -48v-538q0 -101 37 -101q25 0 88 70q12 14 24 31t30 45t26.5 41.5t33.5 55t31 50.5q14 27 43 33.5t47 -6.5q28 -14 34.5 -42.5t-7.5 -47.5
q-118 -195 -170 -256q-45 -53 -97.5 -83t-101.5 -30q-58 0 -96.5 43.5t-50.5 120.5q-72 -77 -166 -120.5t-189 -43.5zM289 100q77 0 151.5 46.5t121 122t46.5 153.5q0 117 -56.5 184.5t-154.5 67.5q-145 0 -234 -92t-89 -240q0 -242 215 -242z" />
    <glyph glyph-name="b" unicode="b" horiz-adv-x="1067" 
d="M512 -37q-161 6 -260.5 132t-99.5 323v76l-93 -162q-38 -52 -90 -25q-37 19 -37 55q0 15 11 33q128 223 207 346v480q0 131 62.5 218t156.5 87q100 0 163.5 -66.5t63.5 -165.5q0 -25 -2 -37q-8 -65 -82.5 -199t-129 -214.5t-99.5 -141.5v-282q0 -147 64.5 -234t176.5 -90
q57 -2 98 19.5t78 72.5l21 37q-92 40 -184 117q-47 41 -74 97t-25 110v-2q0 78 70 133q34 27 92 27q60 0 120.5 -35.5t106.5 -98.5q62 -86 62 -211l-2 -40h10q40 0 65 15.5t48 57.5q18 35 57 35q20 0 33 -8q35 -18 35 -57q0 -18 -9 -33q-35 -69 -96.5 -108.5t-132.5 -39.5
q-15 0 -47 4q-13 -30 -43 -75q-104 -150 -268 -150h-27zM283 938q167 253 176 328q2 10 2 28q0 45 -24.5 73t-63.5 28q-30 0 -60 -55.5t-30 -118.5v-283zM758 354v8q0 87 -35 134l-2 2q-52 80 -121 80q-13 0 -22 -9.5t-9 -25.5q-3 -45 58 -103q54 -51 131 -86z" />
    <glyph glyph-name="c" unicode="c" horiz-adv-x="780" 
d="M360 -41q-184 0 -302.5 112t-118.5 285q0 197 117 328t294 131q85 0 162 -42.5t109 -106.5q13 -24 3.5 -53t-40.5 -40q-27 -10 -50 0t-36 33q-14 26 -59 50t-89 24q-120 0 -198 -92t-78 -232q0 -119 75.5 -192.5t196.5 -73.5q113 0 186 58.5t191 246.5q14 27 43 33.5
t47 -6.5q27 -14 33.5 -43t-6.5 -47q-51 -81 -86.5 -130.5t-82 -101.5t-89.5 -79t-99.5 -44.5t-122.5 -17.5z" />
    <glyph glyph-name="d" unicode="d" 
d="M270 -37q-149 0 -240 105t-91 274q0 204 129.5 335.5t330.5 131.5q132 0 219 -80v721q0 28 20 48t48 20t48 -19t20 -47v-1249q0 -101 37 -101q25 0 88 70q12 14 24 31t30 45t26.5 41.5t33.5 55t31 50.5q14 27 43 33.5t47 -6.5q28 -14 34.5 -42.5t-7.5 -47.5
q-118 -195 -170 -256q-45 -53 -97.5 -83t-101.5 -30q-58 0 -96.5 43.5t-50.5 120.5q-73 -76 -167 -120t-188 -44zM289 100q77 0 151.5 46.5t121 122t46.5 153.5q0 117 -56.5 184.5t-154.5 67.5q-145 0 -234 -92t-89 -240q0 -242 215 -242z" />
    <glyph glyph-name="e" unicode="e" horiz-adv-x="710" 
d="M281 -39q-151 0 -246.5 109.5t-95.5 281.5q0 188 120 322.5t291 134.5q104 0 176 -69t72 -169q0 -130 -131 -198.5t-385 -73.5q8 -91 63 -147t138 -56q118 2 192.5 61.5t175.5 235.5q12 28 38.5 36t55.5 -7q26 -14 31.5 -43t-6.5 -47q-121 -208 -227.5 -289.5
t-261.5 -81.5zM86 440q169 1 273 39t104 94q0 41 -33 71t-80 30q-57 0 -106 -25t-80 -63.5t-50 -75.5t-28 -70z" />
    <glyph glyph-name="f" unicode="f" horiz-adv-x="452" 
d="M25 -764q-101 0 -161.5 79t-60.5 210q0 62 24.5 130.5t73.5 142.5t97 135t119 141v358l-58 -100q-38 -52 -90 -25q-37 19 -37 55q0 15 11 33l174 299v549q0 120 65 200.5t162 80.5q104 0 159.5 -72.5t47.5 -196.5q-7 -109 -87 -260.5t-216 -351.5v-428q106 106 147 180
q14 27 43 33.5t47 -6.5q28 -14 34.5 -42.5t-7.5 -47.5q-66 -115 -260 -309l-4 -484q0 -128 -64 -215.5t-159 -87.5zM248 881q67 112 112.5 217t55.5 159q25 134 -78 134q-33 0 -61.5 -44t-28.5 -104v-362zM31 -629q29 -3 58.5 51.5t29.5 116.5v326q-182 -218 -182 -340
q0 -77 24 -117t70 -37z" />
    <glyph glyph-name="g" unicode="g" horiz-adv-x="1015" 
d="M551 -750q-84 0 -148.5 65.5t-64.5 170.5q0 58 20 119q40 118 105 220t170 212v80q-157 -160 -342 -160q-95 0 -178 47q-83 44 -128.5 136.5t-45.5 201.5q0 191 116 307q162 162 353 162q71 0 133 -23q47 -14 88 -49v4q0 28 20 47t49 19q26 0 46 -20t20 -46l-2 -585
q113 104 196 237q14 27 43.5 33.5t47.5 -6.5q27 -14 33.5 -42.5t-7.5 -47.5q-84 -153 -311 -357v-436q0 -142 -62.5 -215.5t-150.5 -73.5zM293 90q128 0 254 129q80 80 80 215q0 82 -34 147.5t-93 82.5q-44 12 -84 12q-131 0 -264 -127q-37 -37 -57.5 -95.5t-20.5 -121.5
q0 -73 26 -132.5t72 -80.5q66 -29 121 -29zM545 -616q36 0 62 39.5t26 113.5v301q-110 -134 -150 -270q-14 -43 -14 -82q0 -47 22.5 -74.5t53.5 -27.5z" />
    <glyph glyph-name="h" unicode="h" horiz-adv-x="1136" 
d="M217 -41q-27 0 -47 17t-20 49v471l-91 -164q-38 -52 -90 -25q-37 19 -37 55q0 15 11 33l207 355v475q0 131 63 218t158 87q99 0 161 -71t62 -181q0 -37 -11.5 -78.5t-26.5 -75.5t-47.5 -86t-55 -84.5t-69 -98t-71.5 -101.5q98 59 213 59q119 0 201 -65.5t82 -176.5v-368
q0 -56 12.5 -85t34.5 -20q24 9 78 74q12 14 24 31t30 45t26.5 41.5t33.5 55t31 50.5q18 35 58 35q19 0 32 -8q35 -18 35 -57q0 -20 -8 -33q-118 -195 -170 -256q-48 -55 -100 -86t-99 -31q-70 0 -111.5 67.5t-41.5 178.5v366q0 43 -45.5 80t-110.5 37q-126 0 -233 -139v-524
q0 -32 -20 -49t-48 -17zM285 940q117 171 143 219q35 65 35 107q0 133 -92 133q-39 0 -62.5 -57.5t-23.5 -116.5v-285z" />
    <glyph glyph-name="i" unicode="i" horiz-adv-x="618" 
d="M231 973q-35 0 -60.5 26.5t-25.5 61.5t24.5 59.5t61.5 24.5t61.5 -24.5t24.5 -59.5t-25.5 -61.5t-60.5 -26.5zM309 -41q-70 0 -111.5 67.5t-41.5 178.5v295l-97 -168q-38 -52 -90 -25q-37 19 -37 55q0 15 11 33l223 385q17 31 57 31q28 0 48 -20t20 -48v-540
q0 -56 12.5 -85t34.5 -20q24 9 78 74q12 14 24 31t30 45t26.5 41.5t33.5 55t31 50.5q18 35 57 35q20 0 33 -8q35 -18 35 -57q0 -20 -8 -33q-118 -195 -170 -256q-48 -55 -100 -86t-99 -31z" />
    <glyph glyph-name="j" unicode="j" horiz-adv-x="550" 
d="M233 981q-34 0 -60 26.5t-26 61.5t25.5 59.5t60.5 24.5t60.5 -24.5t25.5 -59.5t-26 -61.5t-60 -26.5zM86 -750q-84 0 -148.5 65.5t-64.5 170.5q0 54 21 119q40 118 104.5 220.5t169.5 211.5v483l-109 -188q-38 -52 -90 -25q-37 19 -37 55q0 15 11 33l225 385q17 31 63 31
q28 0 49 -20t21 -48v-585q68 66 145 170q40 54 48 67q14 27 43 33.5t47 -6.5q27 -14 33.5 -42.5t-7.5 -47.5q-19 -33 -53 -78q-28 -41 -66 -85.5t-61.5 -68.5t-70.5 -70t-56 -55l-4 -436q0 -142 -62.5 -215.5t-150.5 -73.5zM80 -616q36 0 62 39.5t26 113.5v301
q-50 -60 -90.5 -133.5t-59.5 -136.5q-14 -54 -14 -82q0 -47 22.5 -74.5t53.5 -27.5z" />
    <glyph glyph-name="k" unicode="k" horiz-adv-x="1024" 
d="M217 -45q-27 0 -47 18t-20 50l2 469l-93 -160q-38 -52 -90 -25q-26 14 -33.5 38t7.5 50l106 187q14 23 32.5 56.5t44.5 103t26 118.5l-2 346q0 28 20 48t49 20q28 0 47 -19.5t19 -48.5v-510q91 74 185 152.5t145 122t55 47.5q25 21 54 17t44 -25q17 -20 14.5 -46
t-22.5 -46l-256 -216l219 -530q34 -70 45 -70q7 0 24.5 21.5t45.5 64t46.5 72t49.5 80.5t33 55q14 27 43 33.5t47 -6.5q27 -14 33.5 -42.5t-7.5 -47.5q-128 -209 -167 -262q-73 -95 -138 -105q-10 -2 -20 -2q-40 0 -83 39.5t-75 116.5l-207 493l-108 -90v-499q0 -32 -20 -50
t-48 -18z" />
    <glyph glyph-name="l" unicode="l" horiz-adv-x="688" 
d="M342 -39q-23 0 -40.5 1.5t-49 13t-52 31.5t-37 63t-16.5 102v313l-88 -153q-38 -52 -90 -25q-26 14 -33.5 38t7.5 50l204 353v475q0 131 64 219t160 88q98 0 159.5 -74.5t61.5 -191.5q-1 -47 -16.5 -95t-50.5 -106t-65 -102t-87.5 -123t-91.5 -129v-537q0 -82 51 -82
q38 0 80.5 29t82.5 78t72 96.5t62 101.5q14 27 44 33.5t48 -6.5q27 -14 32.5 -42.5t-8.5 -47.5q-113 -192 -209.5 -281.5t-193.5 -89.5zM281 940q119 174 149.5 228.5t30.5 91.5q0 131 -92 137q-28 0 -58 -58t-30 -116v-283z" />
    <glyph glyph-name="m" unicode="m" horiz-adv-x="1718" 
d="M330 -53q-28 0 -47 18.5t-19 46.5v666q0 4 -2 4q-4 0 -16 -18l-187 -332q-13 -24 -40 -31t-50 6q-26 14 -33.5 38t7.5 50q8 13 80.5 146.5t103.5 185.5q51 86 139 86q41 0 75.5 -21.5t49.5 -60.5q115 86 240 86q70 0 128.5 -28.5t94.5 -83.5q121 110 260 110
q115 0 196 -71.5t81 -170.5v-370q0 -101 36 -101q26 0 89 70q12 14 24 31t30 45t26.5 41.5t33.5 55t31 50.5q14 27 43 33.5t47 -6.5q28 -14 34.5 -42.5t-7.5 -47.5q-118 -195 -170 -256q-45 -53 -97.5 -83t-101.5 -30q-58 0 -96.5 43.5t-50.5 120.5q-5 31 -5 76v370
q0 45 -37 81t-94 36q-109 0 -229 -139v-539q0 -26 -21 -45.5t-49 -19.5t-46.5 18.5t-18.5 46.5v561q0 46 -37.5 82.5t-95.5 36.5q-111 0 -230 -141v-539q0 -28 -20 -46.5t-49 -18.5z" />
    <glyph glyph-name="n" unicode="n" horiz-adv-x="1269" 
d="M330 -43q-28 0 -47 19t-19 47v655q0 4 -2 4q-4 0 -16 -18l-187 -332q-35 -53 -90 -25q-26 14 -33.5 38t7.5 50q8 13 80.5 146.5t103.5 185.5q51 86 139 86q43 0 77.5 -23t47.5 -63q121 90 262 90q122 0 205.5 -66t83.5 -178v-370q0 -101 37 -101q25 0 88 70q12 14 24 31
t30 45t26.5 41.5t33.5 55t31 50.5q14 27 43.5 33.5t47.5 -6.5q27 -14 33.5 -42.5t-7.5 -47.5q-118 -195 -170 -256q-45 -53 -97 -83t-101 -30q-58 0 -97 43.5t-51 120.5q-4 25 -4 76v370q0 44 -46.5 81.5t-113.5 37.5q-131 0 -250 -141v-528q0 -28 -20 -47t-49 -19z" />
    <glyph glyph-name="o" unicode="o" horiz-adv-x="919" 
d="M342 -43q-172 0 -287.5 127.5t-115.5 316.5q0 109 54 202t143.5 146.5t191.5 53.5q19 0 55 -4q29 -4 45 -24.5t16 -45.5q24 6 50 6q58 0 117.5 -34t105.5 -99q61 -82 61 -225q0 -27 -2 -39q62 15 86 57q18 35 58 35q19 0 32 -8q35 -18 35 -57q0 -20 -8 -33
q-38 -67 -100 -93t-140 -32q-123 -250 -372 -250h-25zM352 88q157 -6 242 137q-65 17 -116 52.5t-78.5 74t-45 82t-22.5 72.5t-4 47q3 69 28 109q-28 4 -41 4q-59 0 -106 -29q-62 -35 -98.5 -101t-36.5 -141q0 -126 82 -216.5t196 -90.5zM645 344l2 33q0 100 -37 149
q-54 80 -118 80q-35 0 -35 -59l2 -27q14 -68 62.5 -114.5t123.5 -61.5z" />
    <glyph glyph-name="p" unicode="p" horiz-adv-x="1138" 
d="M223 -752q-28 0 -47.5 20.5t-19.5 49.5v1182l-97 -168q-38 -52 -90 -25q-26 14 -33.5 38t7.5 50l223 383q17 31 57 31q28 0 48 -20t20 -48l2 -28q117 102 250 102q114 0 191 -80t77 -217v-315q0 -101 37 -101q25 0 88 70q12 14 24 31t30 45t26.5 41.5t33.5 55t31 50.5
q14 27 43 33.5t47 -6.5q28 -14 34.5 -42.5t-7.5 -47.5q-118 -195 -170 -256q-45 -53 -97.5 -83t-101.5 -30q-58 0 -96.5 43.5t-50.5 120.5q-6 40 -6 78v313q0 78 -33.5 119t-91.5 41t-126 -40.5t-132 -117.5v-528q0 -98 -1 -326t-1 -348q0 -28 -20 -49t-48 -21z" />
    <glyph glyph-name="q" unicode="q" horiz-adv-x="1007" 
d="M692 -731q-28 0 -46.5 20t-18.5 49v771q-142 -154 -322 -154q-167 0 -266.5 110t-99.5 289q0 196 125 332.5t305 136.5q75 0 146.5 -23t111.5 -57q0 29 18.5 49.5t46.5 20.5q26 0 46 -21t20 -49v-694q40 76 88 162.5t76 134.5l28 49q14 27 43 33.5t47 -6.5
q28 -14 34.5 -42.5t-7.5 -47.5q-307 -546 -307 -613v-127t-0.5 -105t-1 -76t-0.5 -52v-21q0 -29 -19 -49t-47 -20zM309 88q123 0 216 103.5t93 236.5q0 260 -249 260q-130 0 -212.5 -97.5t-82.5 -240.5q0 -262 235 -262z" />
    <glyph glyph-name="r" unicode="r" horiz-adv-x="876" 
d="M567 -37q-71 0 -112 65.5t-41 176.5v354v39.5t-4 28.5t-6 22t-15.5 14t-21.5 9t-35 3.5t-46 2.5h-63q-117 -268 -164 -346q-31 -55 -90 -25q-26 14 -33.5 38t7.5 50q59 109 110 221.5t71 165.5t23 64q8 31 31.5 44.5t54.5 4.5q28 -7 40 -30.5t3 -51.5h29q53 0 84 -3.5
t65.5 -17t52.5 -40.5t30 -75t12 -118v-356q0 -101 37 -101q25 0 88 70q12 14 24 31t30 45t26.5 41.5t33.5 55t31 50.5q14 27 43 33.5t47 -6.5q28 -14 34.5 -42.5t-7.5 -47.5q-126 -205 -170 -256q-45 -53 -97.5 -83t-101.5 -30z" />
    <glyph glyph-name="s" unicode="s" horiz-adv-x="722" 
d="M215 -39q-135 0 -225 90q-21 25 -21 49q0 26 19 45q20 23 49 23q31 0 49 -21q50 -53 141 -53q60 0 112 25.5t79 73.5q20 36 20 104q0 31 -2 47q-7 81 -68.5 159t-158.5 132q-67 -154 -150 -303q-31 -55 -90 -25q-26 14 -33.5 38t7.5 50q56 104 108 218.5t75 177.5l24 63
q6 20 23 32.5t40 12.5q17 0 25 -4q43 -15 43 -57q0 -7 -5 -27l-12 -37l-6 -16q95 -68 159 -129t108 -140t44 -159q0 -37 -4 -60q63 63 101 125q16 26 44 32.5t46 -5.5q27 -14 33.5 -42.5t-7.5 -47.5q-119 -192 -315 -299q-132 -72 -252 -72z" />
    <glyph glyph-name="t" unicode="t" horiz-adv-x="624" 
d="M315 -35q-71 0 -112 65t-41 175v305q-60 -109 -103 -178q-31 -55 -90 -25q-26 14 -33.5 38t7.5 50q126 219 219 393v173h-51q-28 0 -47 19t-19 48t19 48.5t47 19.5h51v204q0 31 18 49.5t47 18.5q28 0 46.5 -17.5t21.5 -47.5l2 -209l266 2q28 0 47 -19.5t19 -48.5t-19 -48
t-47 -19h-266v-758q0 -101 37 -101q25 0 88 70q12 14 24 31t30 45t26.5 41.5t33.5 55t31 50.5q14 27 43 33.5t47 -6.5q28 -14 34.5 -42.5t-7.5 -47.5q-118 -195 -170 -256q-43 -51 -96.5 -81t-102.5 -30z" />
    <glyph glyph-name="u" unicode="u" horiz-adv-x="1212" 
d="M903 -35q-55 0 -93 38t-52 106q-78 -59 -176.5 -97.5t-186.5 -38.5q-107 0 -172 64t-65 203v266l-99 -174q-17 -27 -43 -33t-47 8q-24 15 -32.5 37t6.5 51l223 385q20 35 57 35q30 0 50 -16.5t20 -42.5v-516q0 -72 36 -106t97 -34q84 0 181.5 56.5t142.5 132.5v469
q0 32 20 48.5t47 16.5q29 0 48.5 -16.5t19.5 -48.5v-555q0 -101 37 -101q25 0 88 70q12 14 24 31t30 45t26.5 41.5t33.5 55t31 50.5q18 35 57 35q20 0 33 -8q35 -18 35 -57q0 -20 -8 -33q-118 -195 -170 -256q-43 -51 -96.5 -81t-102.5 -30z" />
    <glyph glyph-name="v" unicode="v" horiz-adv-x="1179" 
d="M610 -35q-90 0 -167.5 57t-119.5 141t-42 169v307l-13 -8q-10 -7 -20 -17t-21.5 -24.5t-21 -26.5t-23.5 -33.5t-22.5 -34t-25 -39.5t-24 -39t-26 -43t-25.5 -42q-31 -55 -90 -25q-26 14 -33.5 38t7.5 50l45 75t52.5 86t43.5 66.5t53.5 72.5t46.5 48q89 84 146 78h-4
q44 0 67 -38.5t23 -108.5v-342q0 -84 54.5 -159t135.5 -75q97 0 199 121q25 29 37 53q-202 124 -211 353q-2 80 42.5 135t110.5 55q104 0 167 -98t63 -256q0 -35 -2 -53q-4 -44 -8 -70q8 -2 24 -2q52 0 94 59q14 27 43 33.5t47 -6.5q28 -14 34.5 -42.5t-7.5 -47.5
q-9 -15 -24.5 -32t-42 -39.5t-65 -37t-79.5 -14.5q-23 0 -65 10q-19 -44 -56 -88q-142 -166 -297 -166zM879 403l2 13q0 81 -12.5 143t-34 94t-48.5 31q-26 0 -26 -53q0 -41 17.5 -92.5t45.5 -83.5q22 -28 56 -52z" />
    <glyph glyph-name="w" unicode="w" horiz-adv-x="1484" 
d="M594 -39q-126 0 -215.5 108.5t-89.5 262.5v319q-10 -5 -19 -14q-10 -10 -22.5 -24t-23 -27.5t-26 -36t-25.5 -37t-28.5 -43.5t-27.5 -43t-29.5 -47.5t-28.5 -46.5q-31 -55 -90 -25q-26 14 -33.5 38t7.5 50q6 10 19 32q29 49 45 76t47.5 75t53 76t53 64.5t57.5 56.5
t56.5 34t59.5 14q88 0 88 -147v-344q0 -101 55 -172.5t121 -71.5q39 0 68 29q-82 148 -82 321q0 103 47 161t112 58q64 0 110 -57.5t46 -161.5q0 -200 -70 -321q35 -27 80 -27q66 0 134.5 51t101.5 129q-213 133 -213 359q0 80 43.5 134t109.5 54q104 0 167 -98t63 -256
q0 -35 -2 -53q-4 -48 -8 -72q6 -2 22 -2q62 0 100 59q14 27 43.5 33.5t47.5 -6.5q27 -14 33.5 -42.5t-7.5 -47.5q-23 -38 -84 -80.5t-135 -42.5q-34 0 -61 8q-54 -113 -147.5 -183t-194.5 -73q-100 0 -172 57q-72 -57 -156 -57zM1180 406l2 14q0 121 -27 194.5t-68 71.5
q-26 -3 -26 -55q0 -42 16.5 -93t44.5 -83q28 -28 58 -49zM741 270q19 78 19 170q0 26 -3 45.5t-8 28t-10 8.5t-9.5 -9t-7.5 -29t-3 -46q0 -88 22 -168z" />
    <glyph glyph-name="x" unicode="x" horiz-adv-x="1333" 
d="M934 -51q-138 0 -272 131l-19 26q-46 -76 -116 -115.5t-150 -39.5q-72 0 -151 42.5t-124 102.5q-16 21 -16 39q0 31 27 51q20 17 45 17q30 0 49 -25q77 -92 166 -92q90 0 159 96q35 46 35 205q0 61 -11 122.5t-26 84.5q-56 80 -141 80q-57 0 -110 -39
q-51 -35 -102.5 -107.5t-117.5 -195.5q-31 -55 -90 -25q-26 14 -33.5 38t7.5 50q78 143 130 215.5t120 128.5q90 72 194 72q78 0 145 -40t113 -114q9 15 25 31q50 59 115.5 90t134.5 31q77 0 146.5 -37t119.5 -104q16 -19 16 -41q0 -28 -24 -52q-19 -16 -41 -16
q-32 0 -54 25l-2 2q-72 90 -155 90q-81 0 -158 -80q-31 -29 -48.5 -84t-17.5 -121v-35q6 -137 58 -186q83 -92 168 -92q46 0 99 31.5t99.5 81.5t84 102t65.5 102q14 27 43 33.5t47 -6.5q28 -14 34.5 -42.5t-7.5 -47.5q-27 -48 -82 -127q-182 -256 -377 -256z" />
    <glyph glyph-name="y" unicode="y" horiz-adv-x="1048" 
d="M666 -743q-83 0 -147 65t-64 172q0 58 20 119q69 214 268 481v6q-82 -63 -177.5 -101t-174.5 -38q-113 1 -176 75t-63 204v264l-93 -172q-31 -55 -90 -25q-26 14 -33.5 38t7.5 50l219 389q16 33 57 33q28 0 48 -19.5t20 -47.5v-510q0 -77 26 -111.5t86 -34.5q86 0 190 60
t154 137v461q0 29 19 47t49 18q26 0 46 -19.5t20 -45.5v-519q64 78 114 162q14 27 43 33.5t47 -6.5q28 -14 34.5 -42.5t-7.5 -47.5q-79 -138 -231 -309v-476q0 -142 -62.5 -216t-148.5 -74zM662 -612q34 0 58.5 41t24.5 118v312q-116 -173 -143 -285q-10 -45 -10 -74
q0 -51 21 -81.5t49 -30.5z" />
    <glyph glyph-name="z" unicode="z" horiz-adv-x="980" 
d="M705 -45q-103 0 -222 88q-59 39 -140 18t-134 -81q-23 -20 -49.5 -21t-48.5 18q-19 19 -19 49.5t19 49.5q8 8 419 489q-81 0 -146 20t-167 70q-15 -37 -42 -93t-49 -100t-44 -87l-23 -43q-31 -55 -90 -25q-26 14 -33.5 38t7.5 50q16 27 83.5 165.5t98.5 217.5
q13 34 37 38.5t55 -11.5q57 -24 112 -50t75 -35t47 -15.5t63 -6.5q116 0 205 95q21 21 48 21t48 -21q21 -25 20 -51.5t-18 -43.5q-2 -3 -60 -70.5t-162.5 -190.5t-199.5 -236q93 0 164 -45q104 -66 143 -66q11 0 21 3t20.5 11t19.5 17t20.5 26t21 32t24.5 41.5t26.5 48.5
t32 59t36.5 67q14 27 43 33.5t47 -6.5q27 -14 33.5 -42.5t-7.5 -47.5l-139 -252q-68 -125 -196 -125z" />
    <glyph glyph-name="braceleft" unicode="{" horiz-adv-x="548" 
d="M315 -90q-6 0 -22 4l2 -2q-39 9 -68.5 35t-48 66.5t-31 84.5t-18.5 101.5t-8 104.5t-2 106q0 29 1 79t1 70q0 39 -2 55v9q1 2 -11 17t-30.5 33.5t-30.5 26.5l2 -2q-33 17 -33 54q0 35 33 55l-2 -2q11 7 29 26t31 35t12 17v8q2 18 2 67v138q0 59 2 105.5t7.5 104t17.5 101
t30 84.5t47.5 67t67.5 35h2q29 6 47 -12.5t18 -46.5q0 -52 -49 -70l-26 2q-1 1 -11.5 -112.5t-19 -257.5t-4.5 -205v-4q-2 -67 -64 -133q61 -64 64 -138v-2q-4 -60 4.5 -203.5t19 -257.5t11.5 -114l22 6q28 -6 43 -28.5t15 -49.5q0 -23 -13.5 -40t-36.5 -17z" />
    <glyph glyph-name="bar" unicode="|" horiz-adv-x="208" 
d="M35 63q-26 13 -33.5 39t6.5 52l144 241q13 26 39 33.5t51 -6.5q26 -13 33 -38.5t-7 -51.5l-143 -244q-13 -25 -39 -32t-51 7z" />
    <glyph glyph-name="braceright" unicode="}" horiz-adv-x="555" 
d="M256 -88l-23 4q-43 27 -43 88q0 49 35 49q19 0 41 -14q2 -2 10.5 88t16.5 218.5t8 209.5q0 43 -2 59v2q3 75 66 138q-63 63 -66 135v2q2 16 2 59q0 80 -8 208t-16.5 218.5t-10.5 89.5l-24 -6q-28 7 -43 30t-15 48t13.5 41t38.5 16q12 0 20 -2q56 -13 93 -62.5
t53.5 -127.5t22 -147.5t5.5 -161.5v-203v-4q0 -5 28.5 -37t45.5 -45l-2 2q33 -17 33 -53t-33 -56l2 2q-19 -13 -46.5 -44t-27.5 -38v-4v-202q0 -59 -2 -106.5t-8 -105.5t-18 -102.5t-30.5 -85t-48 -66.5t-67.5 -34z" />
    <glyph glyph-name="asciitilde" unicode="~" horiz-adv-x="1011" 
d="M637 496q-81 0 -168 65q-52 39 -92 39q-9 0 -17.5 -2.5t-14 -5t-13 -8t-10.5 -8t-9.5 -9.5t-7.5 -8l-2 -4q-24 -18 -49 -18q-28 0 -49 19.5t-21 45.5q0 20 13 39q16 28 67 58t115 30q88 0 170 -63q47 -37 88 -37q10 0 19 2t17.5 7t13.5 8.5t13.5 10.5t10.5 9q20 28 49 28
q25 0 46 -21t21 -48q0 -23 -12 -37q-20 -31 -67.5 -61.5t-110.5 -30.5z" />
    <glyph glyph-name="exclamdown" unicode="&#xa1;" horiz-adv-x="417" 
d="M127 1366q-35 0 -60.5 26.5t-25.5 63.5q0 34 26 59t60 25q35 0 60.5 -24.5t25.5 -59.5q0 -38 -24.5 -64t-61.5 -26zM125 -45q-27 0 -46.5 16.5t-19.5 48.5v1123q0 32 19.5 48.5t46.5 16.5t46 -16.5t19 -48.5v-1123q0 -32 -19 -48.5t-46 -16.5z" />
    <glyph glyph-name="cent" unicode="&#xa2;" horiz-adv-x="387" 
d="M145 578q-38 0 -66 28t-28 66q0 40 28 68t66 28q41 0 70 -28t29 -68t-29 -67t-70 -27z" />
    <glyph glyph-name="sterling" unicode="&#xa3;" horiz-adv-x="1327" 
d="M905 -45q-52 0 -193.5 45t-222.5 45q-150 0 -276 -63q-28 -14 -48.5 -5.5t-32.5 26.5t-11 41t16 38q230 221 230 418q0 29 -5 58.5t-13 58.5t-9 34h-201q-31 0 -48 19t-17 45q0 27 18.5 47t50.5 20h121q-70 143 -76 332q3 59 23 117q22 70 86 147q129 138 326 138
q138 0 242 -61t159 -175q25 -49 40 -108.5t17 -83.5t2 -37q0 -28 -18.5 -47t-46.5 -19q-26 0 -46 20t-20 46q0 9 -1.5 27t-13 62.5t-30.5 82.5q-81 161 -284 161q-143 0 -228 -94q-42 -48 -57.5 -94.5t-15.5 -105.5q0 -69 28.5 -167.5t55.5 -140.5h376q30 0 47 -19t17 -46
t-17 -46.5t-47 -19.5h-309q25 -92 25 -155q0 -74 -30.5 -163.5t-78.5 -164.5q44 8 96 8q73 0 157 -22.5t153 -45t106 -22.5q23 0 42 3.5t34.5 12t23.5 13.5t22 17t15 13q31 31 56 31q17 0 34 -10q31 -19 31 -55q0 -20 -10 -33q-3 -5 -11 -16t-31.5 -32t-51.5 -36
q-58 -39 -150 -39z" />
    <glyph glyph-name="yen" unicode="&#xa5;" horiz-adv-x="1234" 
d="M571 -35q-27 0 -47 17t-20 49v270h-289q-30 0 -47.5 20.5t-17.5 47.5q0 28 17 47.5t48 19.5h289v197h-289q-30 0 -47.5 20t-17.5 47q0 28 17 48t48 20h264l-395 653q-10 15 -10 35q0 27 21.5 46.5t49.5 19.5q35 0 54 -31l374 -614l369 614v-2q20 35 55 35q27 0 48.5 -20
t21.5 -48q0 -13 -10 -33v-2l-393 -653h258q32 0 49.5 -20t17.5 -48q0 -27 -17.5 -47t-49.5 -20h-283v-197h283q32 0 49.5 -19.5t17.5 -47.5q0 -27 -17.5 -47.5t-49.5 -20.5h-283v-270q0 -32 -20 -49t-48 -17z" />
    <glyph glyph-name="dieresis" unicode="&#xa8;" horiz-adv-x="638" 
d="M139 971q-35 0 -60.5 26.5t-25.5 63.5q0 34 25.5 58t60.5 24t60.5 -24t25.5 -58q0 -37 -25.5 -63.5t-60.5 -26.5zM401 971q-35 0 -61.5 26.5t-26.5 63.5q0 34 25.5 58t62.5 24q35 0 60.5 -24t25.5 -58q0 -37 -25.5 -63.5t-60.5 -26.5z" />
    <glyph glyph-name="copyright" unicode="&#xa9;" horiz-adv-x="1011" 
d="M528 -41q-231 0 -351 199.5t-120 582.5q0 157 41.5 301.5t111.5 250t166.5 168.5t201.5 63q114 0 208 -87.5t107 -207.5q3 -33 -18.5 -52.5t-51.5 -19.5q-25 0 -44.5 16.5t-20.5 45.5q-6 63 -65 118.5t-118 55.5q-97 0 -187 -89.5t-145 -237.5t-55 -308q0 -346 83 -506
t261 -160q61 0 115.5 15.5t88.5 34t68.5 51t47.5 48.5t33 44q10 14 69 110q14 27 43 33.5t47 -6.5q28 -14 34.5 -42.5t-7.5 -47.5q-45 -77 -74 -117q-97 -138 -204.5 -197t-264.5 -59z" />
    <glyph glyph-name="ordfeminine" unicode="&#xaa;" horiz-adv-x="481" 
d="M20 1352q49 49 103 66t108 -3q15 -6 23 -14q14 25 46 18t32 -39v-192q0 -31 7 -31q13 0 62 64l2 2q15 20 39 18.5t34 -18.5t-1 -41q-60 -92 -126.5 -116t-92.5 36q-48 -42 -105.5 -51t-103.5 18q-45 26 -64.5 77t-9.5 107.5t47 98.5zM82 1294q-29 -26 -27 -83t31 -68
q67 -29 133 37q32 32 26 88t-40 65q-58 20 -123 -39z" />
    <glyph glyph-name="guillemotleft" unicode="&#xab;" horiz-adv-x="1183" 
d="M625 49q-21 0 -50 19l-358 256q-33 23 -33 55q0 27 23 47l368 262q27 21 52 21q26 0 43.5 -19.5t17.5 -44.5q0 -36 -31 -55l-305 -209l305 -213q31 -22 31 -53q0 -26 -18 -46t-45 -20zM936 41q-22 0 -49 18l-359 256q-32 22 -32 56q0 28 22 47l369 262q26 20 51 20
q26 0 43.5 -19t17.5 -44q0 -37 -30 -55l-305 -209l305 -213q30 -21 30 -54q0 -26 -18 -45.5t-45 -19.5z" />
    <glyph glyph-name="logicalnot" unicode="&#xac;" horiz-adv-x="96" 
d="M-236 -35q-29 0 -45 20.5t-16 47.5q0 28 16 47.5t45 19.5t68 21t59 47q44 57 148 227q14 27 43 33.5t47 -6.5q28 -14 34.5 -42.5t-7.5 -47.5q-121 -197 -170 -258q-42 -48 -103.5 -78.5t-118.5 -30.5z" />
    <glyph glyph-name="registered" unicode="&#xae;" horiz-adv-x="1185" 
d="M936 719q31 0 49 -20.5t18 -45t-18 -45t-49 -20.5h-686q-31 0 -49 20.5t-18 45t18 45t49 20.5h686z" />
    <glyph glyph-name="macron" unicode="&#xaf;" horiz-adv-x="950" 
d="M170 1274q-32 0 -50 20t-18 47q0 28 18 48t50 20h612q32 0 49 -20t17 -48q0 -27 -17 -47t-49 -20h-612z" />
    <glyph glyph-name="degree" unicode="&#xb0;" horiz-adv-x="454" 
d="M227 1083q-78 0 -133 55.5t-55 133.5t55 133t133 55t133.5 -55t55.5 -133t-55.5 -133.5t-133.5 -55.5zM229 1182q41 0 65.5 24.5t24.5 67.5q0 41 -24.5 66.5t-65.5 25.5q-42 0 -67 -25t-25 -67q0 -43 24.5 -67.5t67.5 -24.5z" />
    <glyph glyph-name="plusminus" unicode="&#xb1;" horiz-adv-x="1185" 
d="M250 692q-31 0 -49 20.5t-18 45t18 45t49 20.5h278v236q0 31 20.5 49t45 18t45 -18t20.5 -49v-236h277q31 0 49 -20.5t18 -45t-18 -45t-49 -20.5h-277v-237q0 -31 -20.5 -49t-45 -18t-45 18t-20.5 49v237h-278zM250 221q-31 0 -49 20.5t-18 45t18 45t49 20.5h686
q31 0 49 -20.5t18 -45t-18 -45t-49 -20.5h-686z" />
    <glyph glyph-name="acute" unicode="&#xb4;" horiz-adv-x="268" 
d="M70 909q-27 0 -48.5 19.5t-21.5 46.5q0 22 14 39l131 194q22 31 54 31q27 0 48 -19t21 -46q0 -22 -14 -39l-131 -195q-22 -31 -53 -31z" />
    <glyph glyph-name="uni00B5" unicode="&#xb5;" horiz-adv-x="1112" 
d="M154 -457q-27 0 -47.5 18t-20.5 50v1454q0 32 20.5 50t47.5 18q28 0 49.5 -18t21.5 -50q0 -140 -2 -338.5t-2 -298.5q3 -163 78.5 -251.5t210.5 -88.5q128 0 208.5 78.5t92.5 216.5v686q0 30 20.5 48t47.5 18q28 0 47.5 -17.5t19.5 -48.5v-1071q0 -32 -19.5 -50
t-47.5 -18q-27 0 -47.5 18t-20.5 50v84q-125 -125 -307 -125q-168 0 -283 115v-461q0 -32 -19.5 -50t-47.5 -18z" />
    <glyph glyph-name="paragraph" unicode="&#xb6;" horiz-adv-x="1161" 
d="M590 -403q-27 0 -47.5 17.5t-20.5 49.5l-2 1022q-156 15 -262 132.5t-106 275.5q0 166 116.5 283.5t280.5 117.5h436q31 0 49.5 -20t18.5 -52q0 -577 4 -1761q0 -30 -19.5 -47.5t-46.5 -17.5t-47 17.5t-20 49.5l-4 1700h-269l4 -1702q0 -31 -19 -48t-46 -17z" />
    <glyph glyph-name="periodcentered" unicode="&#xb7;" horiz-adv-x="630" 
d="M309 367q-38 0 -66 28t-28 66q0 40 28 68t66 28q41 0 70 -28t29 -68t-29 -67t-70 -27z" />
    <glyph glyph-name="cedilla" unicode="&#xb8;" horiz-adv-x="559" 
d="M174 -340q-32 -4 -52 16t-20 48q0 23 15 41t43 22q67 10 114 27q28 11 38.5 29.5t9.5 54.5q-6 58 -99 61h-14q-26 4 -40.5 22.5t-14.5 41.5q0 28 17 47.5t48 19.5q104 -3 166 -53q38 -32 55 -70.5t17 -95.5q0 -138 -142 -180q-101 -29 -141 -31z" />
    <glyph glyph-name="ordmasculine" unicode="&#xba;" horiz-adv-x="421" 
d="M-31 1243q0 78 49 127.5t123 46.5q30 -6 37 -33q30 15 69 1t64 -54q21 -37 27 -90l10 12q27 27 58 9q13 -9 16 -26t-6 -32q-33 -44 -101 -55q-55 -98 -157 -98h-11q-75 0 -126.5 56t-51.5 136zM55 1239q2 -43 30.5 -74.5t66.5 -31.5q43 -3 73 32q-43 19 -69.5 56
t-26.5 82q0 10 4 30q-37 -3 -58 -28.5t-20 -65.5zM209 1303q6 -48 45 -64q-3 27 -10 47q-10 23 -27 27q-9 2 -8 -8v-2z" />
    <glyph glyph-name="guillemotright" unicode="&#xbb;" horiz-adv-x="1185" 
d="M561 49q-27 0 -45 20t-18 46q0 33 28 53l308 213l-308 209q-30 21 -30 53q0 26 18 46t45 20q24 0 51 -21l367 -260q24 -21 24 -49q0 -34 -30 -55l-361 -256q-28 -19 -49 -19zM250 41q-27 0 -45.5 19.5t-18.5 45.5q0 34 29 54l307 213l-307 209q-31 22 -31 53
q0 26 18.5 45.5t45.5 19.5q25 0 51 -20l367 -260q24 -21 24 -49q0 -34 -31 -56l-360 -256q-27 -18 -49 -18z" />
    <glyph glyph-name="questiondown" unicode="&#xbf;" horiz-adv-x="1087" 
d="M502 1292q-37 0 -63.5 26.5t-26.5 61.5q0 37 26.5 63.5t63.5 26.5t63.5 -26.5t26.5 -63.5q0 -35 -26.5 -61.5t-63.5 -26.5zM502 -41q-88 0 -167 24t-146.5 73t-107.5 134.5t-40 198.5q0 96 29 175t75.5 130.5t102 93.5t110 71.5t98 56.5t67.5 58t18 66v11q0 21 -15 29.5
t-59 9.5h-2q-31 3 -47.5 21.5t-16.5 43.5q0 28 19.5 47t54.5 19q87 0 143.5 -48t55.5 -122h-31l31 -2q-5 -72 -35 -129.5t-74 -96.5t-96.5 -74t-104 -69.5t-94 -74t-68.5 -97.5t-26 -131q0 -65 21.5 -117t56 -85t81 -55t94.5 -31t99 -9q89 0 155.5 25t66.5 59l2 8
q12 51 65 51q27 0 46.5 -15.5t19.5 -41.5q0 -5 -4 -21q-23 -83 -131.5 -134.5t-245.5 -51.5z" />
    <glyph glyph-name="Agrave" unicode="&#xc0;" horiz-adv-x="1120" 
d="M522 1567q-32 0 -53 30l-135 195q-10 15 -10 37q0 27 21 46t48 19q31 0 51 -28l131 -195q15 -18 15 -39q0 -26 -20.5 -45.5t-47.5 -19.5zM106 -33q-28 0 -48.5 18.5t-20.5 47.5q0 6 4 22l446 1418q15 47 64 47q20 0 38 -12t25 -33v-2l445 -1420q4 -16 4 -22
q0 -28 -21 -46t-49 -18q-47 0 -61 49l-117 373h-528l-117 -375q-14 -47 -64 -47zM328 520h448l-225 717z" />
    <glyph glyph-name="Aacute" unicode="&#xc1;" horiz-adv-x="1120" 
d="M592 1561q-27 0 -48.5 19t-21.5 46q0 21 15 39l131 195q21 30 53 30q27 0 48.5 -19t21.5 -46q0 -21 -15 -39l-131 -195q-21 -30 -53 -30zM106 -33q-28 0 -48.5 18.5t-20.5 47.5q0 6 4 22l446 1418q15 47 64 47q20 0 38 -12t25 -33v-2l445 -1420q4 -16 4 -22
q0 -28 -21 -46t-49 -18q-47 0 -61 49l-117 373h-528l-117 -375q-14 -47 -64 -47zM328 520h448l-225 717z" />
    <glyph glyph-name="Acircumflex" unicode="&#xc2;" horiz-adv-x="1120" 
d="M731 1536q-27 0 -47 20q-17 18 -37.5 37t-48 43.5t-41.5 36.5l-125 -117q-18 -18 -47 -18q-26 0 -46 19t-20 45t25 51l168 162q23 20 49 20q16 0 29 -8t18 -15l168 -159q23 -23 23 -49q0 -28 -20 -48t-48 -20zM106 -33q-28 0 -48.5 18.5t-20.5 47.5q0 6 4 22l446 1418
q15 47 64 47q20 0 38 -12t25 -33v-2l445 -1420q4 -16 4 -22q0 -28 -21 -46t-49 -18q-47 0 -61 49l-117 373h-528l-117 -375q-14 -47 -64 -47zM328 520h448l-225 717z" />
    <glyph glyph-name="Adieresis" unicode="&#xc4;" horiz-adv-x="1120" 
d="M418 1585q-35 0 -60.5 26.5t-25.5 63.5q0 34 25.5 58t60.5 24t60.5 -24t25.5 -58q0 -37 -25.5 -63.5t-60.5 -26.5zM680 1585q-35 0 -61.5 26.5t-26.5 63.5q0 34 25.5 58t62.5 24q35 0 60.5 -24t25.5 -58q0 -37 -25.5 -63.5t-60.5 -26.5zM106 -33q-28 0 -48.5 18.5
t-20.5 47.5q0 6 4 22l446 1418q15 47 64 47q20 0 38 -12t25 -33v-2l445 -1420q4 -16 4 -22q0 -28 -21 -46t-49 -18q-47 0 -61 49l-117 373h-528l-117 -375q-14 -47 -64 -47zM328 520h448l-225 717z" />
    <glyph glyph-name="Aring" unicode="&#xc5;" horiz-adv-x="1120" 
d="M549 1520q-59 0 -100 41t-41 100t41 100t100 41t100 -41t41 -100t-41 -100t-100 -41zM549 1581q37 0 58.5 21.5t21.5 58.5t-21.5 58.5t-58.5 21.5t-58.5 -21.5t-21.5 -58.5t21.5 -58.5t58.5 -21.5zM106 -33q-28 0 -48.5 18.5t-20.5 47.5q0 6 4 22l446 1418q15 47 64 47
q20 0 38 -12t25 -33v-2l445 -1420q4 -16 4 -22q0 -28 -21 -46t-49 -18q-47 0 -61 49l-117 373h-528l-117 -375q-14 -47 -64 -47zM328 520h448l-225 717z" />
    <glyph glyph-name="AE" unicode="&#xc6;" horiz-adv-x="1792" 
d="M106 -33q-27 0 -48 20t-21 48q0 20 12 41l879 1411q20 35 59 35h612q32 0 50 -19.5t18 -46.5t-18 -46t-50 -19h-546v-605h542q32 0 49 -19t17 -46q0 -28 -17 -48t-49 -20h-542v-551h546q32 0 49 -19.5t17 -47.5q0 -27 -17 -47.5t-49 -20.5h-612q-29 0 -47 18.5t-18 47.5
v356h-510l-248 -387q-22 -35 -58 -35zM492 520h430v707z" />
    <glyph glyph-name="Ccedilla" unicode="&#xc7;" horiz-adv-x="1056" 
d="M494 -330q-33 -4 -52.5 15t-19.5 47q0 23 14.5 41t42.5 22q61 9 115 23q31 11 40 29t3 59q-6 57 -109 57q-234 0 -352.5 195.5t-118.5 580.5q0 157 41.5 301.5t111.5 250t166.5 168.5t201.5 63q115 0 210 -88t105 -207q3 -33 -18.5 -52.5t-51.5 -19.5q-25 0 -44.5 16.5
t-20.5 45.5q-6 63 -65 118.5t-118 55.5q-97 0 -187 -89.5t-145 -237.5t-55 -308q0 -345 82 -501.5t262 -156.5q85 0 148.5 43t114.5 135q17 35 53 35q27 0 49.5 -20.5t22.5 -48.5q0 -44 -63.5 -115.5t-125.5 -108.5q34 -36 43 -106q6 -86 -25 -138t-106 -75
q-90 -26 -149 -29z" />
    <glyph glyph-name="Egrave" unicode="&#xc8;" horiz-adv-x="921" 
d="M416 1567q-33 0 -54 30l-135 195q-10 15 -10 37q0 27 21.5 46t48.5 19q31 0 51 -28l131 -195q14 -17 14 -39q0 -26 -20.5 -45.5t-46.5 -19.5zM117 -37q-29 0 -47.5 18.5t-18.5 47.5v1423q0 31 17.5 48.5t48.5 17.5h612q32 0 50 -19.5t18 -46.5t-18 -46.5t-50 -19.5h-547
v-604h545q31 0 48.5 -19.5t17.5 -45.5q0 -28 -17.5 -48t-48.5 -20h-545v-551h547q32 0 49 -19.5t17 -47.5t-17 -48t-49 -20h-612z" />
    <glyph glyph-name="Eacute" unicode="&#xc9;" horiz-adv-x="921" 
d="M442 1561q-27 0 -48 19t-21 46q0 22 14 39l131 195q21 30 53 30q27 0 48.5 -19t21.5 -46q0 -22 -14 -39l-131 -195q-21 -30 -54 -30zM117 -37q-29 0 -47.5 18.5t-18.5 47.5v1423q0 31 17.5 48.5t48.5 17.5h612q32 0 50 -19.5t18 -46.5t-18 -46.5t-50 -19.5h-547v-604h545
q31 0 48.5 -19.5t17.5 -45.5q0 -28 -17.5 -48t-48.5 -20h-545v-551h547q32 0 49 -19.5t17 -47.5t-17 -48t-49 -20h-612z" />
    <glyph glyph-name="Ecircumflex" unicode="&#xca;" horiz-adv-x="921" 
d="M643 1567q-27 0 -47 20q-17 18 -37.5 37t-48 43.5t-41.5 36.5l-125 -117q-18 -18 -47 -18q-27 0 -46.5 18.5t-19.5 44.5t25 51l168 162q24 21 49 21q16 0 29 -8t18 -15l168 -160q23 -23 23 -49q0 -28 -20 -47.5t-48 -19.5zM117 -37q-29 0 -47.5 18.5t-18.5 47.5v1423
q0 31 17.5 48.5t48.5 17.5h612q32 0 50 -19.5t18 -46.5t-18 -46.5t-50 -19.5h-547v-604h545q31 0 48.5 -19.5t17.5 -45.5q0 -28 -17.5 -48t-48.5 -20h-545v-551h547q32 0 49 -19.5t17 -47.5t-17 -48t-49 -20h-612z" />
    <glyph glyph-name="Edieresis" unicode="&#xcb;" horiz-adv-x="921" 
d="M305 1585q-35 0 -60.5 26.5t-25.5 63.5q0 34 25.5 58t60.5 24t60.5 -24t25.5 -58q0 -37 -25.5 -63.5t-60.5 -26.5zM567 1585q-35 0 -61.5 26.5t-26.5 63.5q0 34 25.5 58t62.5 24q35 0 60.5 -24t25.5 -58q0 -37 -25.5 -63.5t-60.5 -26.5zM117 -37q-29 0 -47.5 18.5
t-18.5 47.5v1423q0 31 17.5 48.5t48.5 17.5h612q32 0 50 -19.5t18 -46.5t-18 -46.5t-50 -19.5h-547v-604h545q31 0 48.5 -19.5t17.5 -45.5q0 -28 -17.5 -48t-48.5 -20h-545v-551h547q32 0 49 -19.5t17 -47.5t-17 -48t-49 -20h-612z" />
    <glyph glyph-name="Igrave" unicode="&#xcc;" horiz-adv-x="598" 
d="M250 1567q-32 0 -53 30l-136 195q-10 15 -10 37q0 27 21.5 46t48.5 19q31 0 51 -28l131 -195q14 -17 14 -39q0 -26 -20.5 -45.5t-46.5 -19.5zM127 -35q-32 0 -50 19.5t-18 46.5t18 46t50 19h74v1293h-74q-31 0 -48.5 18.5t-17.5 44.5t18.5 47t47.5 21h279q29 0 46 -20.5
t17 -47.5t-16 -45t-47 -18h-74v-1293h74q32 0 48.5 -19t16.5 -46t-16.5 -46.5t-48.5 -19.5h-279z" />
    <glyph glyph-name="Iacute" unicode="&#xcd;" horiz-adv-x="577" 
d="M293 1561q-27 0 -48.5 19t-21.5 46q0 21 15 39l131 195q21 30 53 30q27 0 48.5 -19t21.5 -46q0 -21 -15 -39l-131 -195q-21 -30 -53 -30zM106 -35q-32 0 -49.5 19.5t-17.5 46.5t17.5 46t49.5 19h74v1293h-74q-31 0 -48 18.5t-17 44.5q0 27 18 47.5t47 20.5h279
q29 0 46.5 -20.5t17.5 -47.5t-16.5 -45t-47.5 -18h-74v-1293h74q32 0 49 -19t17 -46t-17 -46.5t-49 -19.5h-279z" />
    <glyph glyph-name="Icircumflex" unicode="&#xce;" horiz-adv-x="632" 
d="M444 1548q-26 0 -47 21q-17 18 -37.5 37t-48 43.5t-41.5 36.5l-125 -117q-19 -19 -47 -19q-26 0 -45.5 19t-19.5 45q0 27 24 51l168 162q23 20 49 20q16 0 30 -7.5t18 -14.5l167 -160q23 -23 23 -49q0 -28 -20 -48t-48 -20zM131 -35q-32 0 -50 19.5t-18 46.5t18 46t50 19
h74v1293h-74q-31 0 -48 18.5t-17 44.5q0 27 18 47.5t47 20.5h279q29 0 46 -20.5t17 -47.5t-16 -45t-47 -18h-74v-1293h74q32 0 48.5 -19t16.5 -46t-16.5 -46.5t-48.5 -19.5h-279z" />
    <glyph glyph-name="Idieresis" unicode="&#xcf;" horiz-adv-x="589" 
d="M111 1585q-35 0 -60.5 26.5t-25.5 63.5q0 34 25.5 58t60.5 24t60.5 -24t25.5 -58q0 -37 -25.5 -63.5t-60.5 -26.5zM373 1585q-35 0 -61.5 26.5t-26.5 63.5q0 34 25.5 58t62.5 24q35 0 60.5 -24t25.5 -58q0 -37 -25.5 -63.5t-60.5 -26.5zM106 -35q-32 0 -49.5 19.5
t-17.5 46.5t17.5 46t49.5 19h74v1293h-74q-31 0 -48 18.5t-17 44.5q0 27 18 47.5t47 20.5h279q29 0 46.5 -20.5t17.5 -47.5t-16.5 -45t-47.5 -18h-74v-1293h74q32 0 49 -19t17 -46t-17 -46.5t-49 -19.5h-279z" />
    <glyph glyph-name="Ntilde" unicode="&#xd1;" horiz-adv-x="1200" 
d="M709 1507q-98 0 -197 76q-61 45 -109 45q-20 0 -38.5 -10t-25.5 -17t-20 -22q-27 -27 -59 -27t-56 23t-24 55q0 24 13 45q18 33 78 69t135 36q101 0 200 -76q56 -43 103 -43q52 0 86 43q23 28 54.5 31t52.5 -15t30 -45t-12 -59q-21 -35 -78.5 -72t-132.5 -37zM141 -35
q-27 0 -47 17t-20 49v1427q0 29 19.5 46.5t47.5 17.5q39 0 58 -31l700 -1210v1177q0 31 20 48.5t48 17.5q26 0 45.5 -17.5t19.5 -48.5v-1427q0 -29 -20.5 -47.5t-46.5 -18.5q-41 0 -58 35l-698 1208v-1177q0 -32 -20 -49t-48 -17z" />
    <glyph glyph-name="Ograve" unicode="&#xd2;" horiz-adv-x="1126" 
d="M481 1581q-31 0 -53 31l-135 194q-10 15 -10 37q0 27 21 46.5t48 19.5q31 0 51 -29l132 -194q14 -17 14 -39q0 -26 -21 -46t-47 -20zM549 -37q-92 0 -166 28.5t-124 74.5t-87.5 114t-58 136t-33 152.5t-16 151t-3.5 142.5q0 345 131 550.5t355 205.5q209 0 325.5 -210
t116.5 -581q0 -377 -110 -570.5t-330 -193.5zM559 94q139 0 218 169t79 464q-3 300 -87.5 479.5t-221.5 179.5q-157 -2 -253.5 -174t-96.5 -450q0 -342 88 -505t274 -163z" />
    <glyph glyph-name="Oacute" unicode="&#xd3;" horiz-adv-x="1126" 
d="M569 1577q-27 0 -48 19t-21 46q0 22 14 39l131 195q22 31 53 31q27 0 48.5 -19.5t21.5 -46.5q0 -22 -14 -39l-131 -194q-22 -31 -54 -31zM549 -37q-92 0 -166 28.5t-124 74.5t-87.5 114t-58 136t-33 152.5t-16 151t-3.5 142.5q0 345 131 550.5t355 205.5
q209 0 325.5 -210t116.5 -581q0 -377 -110 -570.5t-330 -193.5zM559 94q139 0 218 169t79 464q-3 300 -87.5 479.5t-221.5 179.5q-157 -2 -253.5 -174t-96.5 -450q0 -342 88 -505t274 -163z" />
    <glyph glyph-name="Ocircumflex" unicode="&#xd4;" horiz-adv-x="1126" 
d="M717 1565q-27 0 -47 20q-17 18 -37.5 37t-48 43.5t-41.5 36.5l-125 -117q-18 -18 -47 -18q-27 0 -46.5 18.5t-19.5 44.5t25 51l168 162q24 21 49 21q16 0 29 -8t18 -15l168 -160q22 -22 22 -49q0 -28 -19.5 -47.5t-47.5 -19.5zM549 -37q-92 0 -166 28.5t-124 74.5
t-87.5 114t-58 136t-33 152.5t-16 151t-3.5 142.5q0 345 131 550.5t355 205.5q209 0 325.5 -210t116.5 -581q0 -377 -110 -570.5t-330 -193.5zM559 94q139 0 218 169t79 464q-3 300 -87.5 479.5t-221.5 179.5q-157 -2 -253.5 -174t-96.5 -450q0 -342 88 -505t274 -163z" />
    <glyph glyph-name="Odieresis" unicode="&#xd6;" horiz-adv-x="1126" 
d="M397 1585q-35 0 -60.5 26.5t-25.5 63.5q0 34 25.5 58t60.5 24t60.5 -24t25.5 -58q0 -37 -25.5 -63.5t-60.5 -26.5zM659 1585q-35 0 -61.5 26.5t-26.5 63.5q0 34 25.5 58t62.5 24q35 0 60.5 -24t25.5 -58q0 -37 -25.5 -63.5t-60.5 -26.5zM549 -37q-92 0 -166 28.5
t-124 74.5t-87.5 114t-58 136t-33 152.5t-16 151t-3.5 142.5q0 345 131 550.5t355 205.5q209 0 325.5 -210t116.5 -581q0 -377 -110 -570.5t-330 -193.5zM559 94q139 0 218 169t79 464q-3 300 -87.5 479.5t-221.5 179.5q-157 -2 -253.5 -174t-96.5 -450q0 -342 88 -505
t274 -163z" />
    <glyph glyph-name="Oslash" unicode="&#xd8;" horiz-adv-x="1769" 
d="M885 -47q-138 0 -268.5 48t-237.5 138l-72 -71q-23 -23 -51 -23t-48 20t-20 46q0 28 23 51l74 71q-183 220 -183 502q0 211 105.5 391.5t286 286t391.5 105.5q138 0 268.5 -48t237.5 -139l71 72q22 22 51 22q27 0 46.5 -19.5t19.5 -45.5q0 -28 -23 -51l-73 -72
q89 -104 136.5 -234.5t47.5 -267.5q0 -158 -62 -303t-167 -250t-250 -167t-303 -62zM377 326l921 913q-179 147 -413 147q-177 0 -327 -87t-237.5 -237t-87.5 -327q0 -230 144 -409zM885 84q133 0 253.5 51.5t207.5 138.5t138.5 207.5t51.5 253.5q0 233 -145 410l-920 -914
q179 -147 414 -147z" />
    <glyph glyph-name="Ugrave" unicode="&#xd9;" horiz-adv-x="1169" 
d="M479 1567q-32 0 -53 30l-135 195q-10 15 -10 37q0 27 21 46t48 19q31 0 51 -28l131 -195q15 -18 15 -39q0 -26 -20.5 -45.5t-47.5 -19.5zM512 -35q-37 0 -75 5.5t-83 20.5t-85.5 38t-79 60.5t-66 84.5t-44 114.5t-16.5 147.5v1018q0 32 20.5 50t47.5 18q28 0 48 -18
t20 -50v-1018q2 -170 79 -253t240 -87q46 0 90 8t93.5 31t86 59t60.5 98.5t24 143.5v1022q0 31 20 48.5t48 17.5q27 0 46.5 -17.5t19.5 -48.5v-1022q0 -111 -37 -198t-91 -136.5t-124.5 -82t-129 -43.5t-112.5 -11z" />
    <glyph glyph-name="Uacute" unicode="&#xda;" horiz-adv-x="1169" 
d="M549 1561q-27 0 -48.5 19t-21.5 46q0 21 15 39l131 195q21 30 53 30q27 0 48.5 -19t21.5 -46q0 -21 -15 -39l-131 -195q-21 -30 -53 -30zM512 -35q-37 0 -75 5.5t-83 20.5t-85.5 38t-79 60.5t-66 84.5t-44 114.5t-16.5 147.5v1018q0 32 20.5 50t47.5 18q28 0 48 -18
t20 -50v-1018q2 -170 79 -253t240 -87q46 0 90 8t93.5 31t86 59t60.5 98.5t24 143.5v1022q0 31 20 48.5t48 17.5q27 0 46.5 -17.5t19.5 -48.5v-1022q0 -111 -37 -198t-91 -136.5t-124.5 -82t-129 -43.5t-112.5 -11z" />
    <glyph glyph-name="Ucircumflex" unicode="&#xdb;" horiz-adv-x="1169" 
d="M711 1536q-27 0 -47 20q-17 18 -37.5 37t-48 43.5t-41.5 36.5l-125 -117q-18 -18 -47 -18q-26 0 -46 19t-20 45t25 51l168 162q23 20 49 20q16 0 29 -8t18 -15l168 -159q22 -22 22 -49q0 -28 -19.5 -48t-47.5 -20zM512 -35q-37 0 -75 5.5t-83 20.5t-85.5 38t-79 60.5
t-66 84.5t-44 114.5t-16.5 147.5v1018q0 32 20.5 50t47.5 18q28 0 48 -18t20 -50v-1018q2 -170 79 -253t240 -87q46 0 90 8t93.5 31t86 59t60.5 98.5t24 143.5v1022q0 31 20 48.5t48 17.5q27 0 46.5 -17.5t19.5 -48.5v-1022q0 -111 -37 -198t-91 -136.5t-124.5 -82
t-129 -43.5t-112.5 -11z" />
    <glyph glyph-name="Udieresis" unicode="&#xdc;" horiz-adv-x="1169" 
d="M391 1585q-35 0 -60.5 26.5t-25.5 63.5q0 34 25.5 58t60.5 24t60.5 -24t25.5 -58q0 -37 -25.5 -63.5t-60.5 -26.5zM653 1585q-35 0 -61.5 26.5t-26.5 63.5q0 34 25.5 58t62.5 24q35 0 60.5 -24t25.5 -58q0 -37 -25.5 -63.5t-60.5 -26.5zM512 -35q-37 0 -75 5.5t-83 20.5
t-85.5 38t-79 60.5t-66 84.5t-44 114.5t-16.5 147.5v1018q0 32 20.5 50t47.5 18q28 0 48 -18t20 -50v-1018q2 -170 79 -253t240 -87q46 0 90 8t93.5 31t86 59t60.5 98.5t24 143.5v1022q0 31 20 48.5t48 17.5q27 0 46.5 -17.5t19.5 -48.5v-1022q0 -111 -37 -198t-91 -136.5
t-124.5 -82t-129 -43.5t-112.5 -11z" />
    <glyph glyph-name="germandbls" unicode="&#xdf;" horiz-adv-x="1101" 
d="M127 -61q-27 0 -46.5 16t-19.5 45v1454q0 66 66 66h354q83 0 152 -21t116.5 -57t80.5 -84.5t48 -103t15 -113.5q0 -105 -46.5 -201.5t-129.5 -155.5q118 -63 182 -176t64 -241q0 -82 -28.5 -155.5t-83 -133t-143.5 -94.5t-202 -35h-41q-29 0 -45.5 19t-16.5 46t16.5 46.5
t45.5 19.5h41q161 0 246.5 84.5t85.5 206.5q0 63 -25 123.5t-70.5 109.5t-118 79t-159.5 30q-29 0 -45.5 19t-16.5 46t16.5 46.5t45.5 19.5q137 0 220 90t83 205q0 105 -73.5 177.5t-213.5 72.5h-288v-1389q0 -29 -19.5 -45t-46.5 -16z" />
    <glyph glyph-name="agrave" unicode="&#xe0;" 
d="M367 913q-32 0 -54 31l-135 195q-10 15 -10 37q0 27 21.5 46t48.5 19q31 0 51 -29l131 -194q14 -17 14 -39q0 -26 -20.5 -46t-46.5 -20zM270 -37q-149 0 -240 105t-91 274q0 204 129.5 335.5t330.5 131.5q132 0 219 -80v12q0 28 20 48t48 20t48 -20t20 -48v-538
q0 -101 37 -101q25 0 88 70q12 14 24 31t30 45t26.5 41.5t33.5 55t31 50.5q14 27 43 33.5t47 -6.5q28 -14 34.5 -42.5t-7.5 -47.5q-118 -195 -170 -256q-45 -53 -97.5 -83t-101.5 -30q-58 0 -96.5 43.5t-50.5 120.5q-72 -77 -166 -120.5t-189 -43.5zM289 100
q77 0 151.5 46.5t121 122t46.5 153.5q0 117 -56.5 184.5t-154.5 67.5q-145 0 -234 -92t-89 -240q0 -242 215 -242z" />
    <glyph glyph-name="aacute" unicode="&#xe1;" 
d="M442 909q-27 0 -48 19.5t-21 46.5q0 22 14 39l131 194q22 31 53 31q27 0 48.5 -19t21.5 -46q0 -22 -14 -39l-131 -195q-22 -31 -54 -31zM270 -37q-149 0 -240 105t-91 274q0 204 129.5 335.5t330.5 131.5q132 0 219 -80v12q0 28 20 48t48 20t48 -20t20 -48v-538
q0 -101 37 -101q25 0 88 70q12 14 24 31t30 45t26.5 41.5t33.5 55t31 50.5q14 27 43 33.5t47 -6.5q28 -14 34.5 -42.5t-7.5 -47.5q-118 -195 -170 -256q-45 -53 -97.5 -83t-101.5 -30q-58 0 -96.5 43.5t-50.5 120.5q-72 -77 -166 -120.5t-189 -43.5zM289 100
q77 0 151.5 46.5t121 122t46.5 153.5q0 117 -56.5 184.5t-154.5 67.5q-145 0 -234 -92t-89 -240q0 -242 215 -242z" />
    <glyph glyph-name="acircumflex" unicode="&#xe2;" 
d="M588 872q-26 0 -47 21q-17 18 -37.5 37t-48 43.5t-41.5 36.5l-125 -117q-19 -19 -47 -19q-26 0 -46 19t-20 45t25 51l168 162q23 20 49 20q32 0 47 -22l168 -160q22 -22 22 -49q0 -28 -19.5 -48t-47.5 -20zM270 -37q-149 0 -240 105t-91 274q0 204 129.5 335.5
t330.5 131.5q132 0 219 -80v12q0 28 20 48t48 20t48 -20t20 -48v-538q0 -101 37 -101q25 0 88 70q12 14 24 31t30 45t26.5 41.5t33.5 55t31 50.5q14 27 43 33.5t47 -6.5q28 -14 34.5 -42.5t-7.5 -47.5q-118 -195 -170 -256q-45 -53 -97.5 -83t-101.5 -30q-58 0 -96.5 43.5
t-50.5 120.5q-72 -77 -166 -120.5t-189 -43.5zM289 100q77 0 151.5 46.5t121 122t46.5 153.5q0 117 -56.5 184.5t-154.5 67.5q-145 0 -234 -92t-89 -240q0 -242 215 -242z" />
    <glyph glyph-name="adieresis" unicode="&#xe4;" 
d="M258 971q-35 0 -60.5 26.5t-25.5 63.5q0 34 25.5 58t60.5 24t60.5 -24t25.5 -58q0 -37 -25.5 -63.5t-60.5 -26.5zM520 971q-35 0 -61.5 26.5t-26.5 63.5q0 34 25.5 58t62.5 24q35 0 60.5 -24t25.5 -58q0 -37 -25.5 -63.5t-60.5 -26.5zM270 -37q-149 0 -240 105t-91 274
q0 204 129.5 335.5t330.5 131.5q132 0 219 -80v12q0 28 20 48t48 20t48 -20t20 -48v-538q0 -101 37 -101q25 0 88 70q12 14 24 31t30 45t26.5 41.5t33.5 55t31 50.5q14 27 43 33.5t47 -6.5q28 -14 34.5 -42.5t-7.5 -47.5q-118 -195 -170 -256q-45 -53 -97.5 -83t-101.5 -30
q-58 0 -96.5 43.5t-50.5 120.5q-72 -77 -166 -120.5t-189 -43.5zM289 100q77 0 151.5 46.5t121 122t46.5 153.5q0 117 -56.5 184.5t-154.5 67.5q-145 0 -234 -92t-89 -240q0 -242 215 -242z" />
    <glyph glyph-name="aring" unicode="&#xe5;" 
d="M369 809q-59 0 -100.5 41.5t-41.5 99.5t41.5 100t100.5 42q58 0 99.5 -41.5t41.5 -100.5q0 -58 -41 -99.5t-100 -41.5zM369 870q37 0 58.5 21.5t21.5 58.5t-21.5 58.5t-58.5 21.5t-58.5 -21.5t-21.5 -58.5t21.5 -58.5t58.5 -21.5zM270 -37q-149 0 -240 105t-91 274
q0 204 129.5 335.5t330.5 131.5q132 0 219 -80v12q0 28 20 48t48 20t48 -20t20 -48v-538q0 -101 37 -101q25 0 88 70q12 14 24 31t30 45t26.5 41.5t33.5 55t31 50.5q14 27 43 33.5t47 -6.5q28 -14 34.5 -42.5t-7.5 -47.5q-118 -195 -170 -256q-45 -53 -97.5 -83t-101.5 -30
q-58 0 -96.5 43.5t-50.5 120.5q-72 -77 -166 -120.5t-189 -43.5zM289 100q77 0 151.5 46.5t121 122t46.5 153.5q0 117 -56.5 184.5t-154.5 67.5q-145 0 -234 -92t-89 -240q0 -242 215 -242z" />
    <glyph glyph-name="ae" unicode="&#xe6;" horiz-adv-x="1380" 
d="M270 -37q-147 0 -239 106t-92 275q0 200 131.5 334.5t326.5 134.5q134 0 221 -80v10q0 29 19 49.5t47 20.5t49 -21t21 -49l-2 -41q110 107 268 107q104 0 176 -69t72 -169q0 -131 -134 -217t-380 -114q12 -58 70 -101t128 -43q118 2 193.5 61.5t175.5 235.5q16 39 61 39
q17 0 35 -12q31 -21 31 -55q0 -20 -8 -33q-118 -207 -226 -288t-264 -81q-104 0 -183.5 50.5t-119.5 140.5q-72 -88 -173.5 -139.5t-203.5 -51.5zM289 102q77 0 151.5 46.5t121 122t46.5 153.5q0 118 -56.5 186t-154.5 68q-138 0 -230.5 -95.5t-92.5 -238.5q0 -242 215 -242
zM745 375q186 23 287 75t101 123q0 41 -33 71t-80 30q-84 0 -149 -49.5t-95.5 -116.5t-30.5 -133z" />
    <glyph glyph-name="ccedilla" unicode="&#xe7;" horiz-adv-x="780" 
d="M307 -340h2q-33 -4 -53 16t-20 48q0 23 14.5 41t42.5 22q69 10 115 27q28 11 38 29t9 55q-6 58 -99 61h-10q-180 4 -293.5 115.5t-113.5 281.5q0 197 117 328t294 131q85 0 162 -42.5t109 -106.5l4 -7q2 -6 2 -18q0 -49 -39 -68h-4q-16 -4 -25 -4q-44 0 -59 35l-2 2
q-11 27 -57 50.5t-91 23.5q-120 0 -198 -92t-78 -232q0 -119 75.5 -192.5t196.5 -73.5q110 0 184 60t195 249q15 35 55 35q21 0 39 -12l-4 2q15 -7 24 -23t9 -34q0 -20 -8 -31v-2q-88 -135 -151 -211.5t-136 -118.5q26 -36 35 -100q2 -10 2 -33q0 -68 -36 -114t-105 -66
q-100 -29 -142 -31z" />
    <glyph glyph-name="egrave" unicode="&#xe8;" horiz-adv-x="710" 
d="M354 913q-31 0 -53 31l-135 195q-10 15 -10 37q0 27 21 46t48 19q31 0 51 -29l132 -194q14 -17 14 -39q0 -26 -21 -46t-47 -20zM281 -39q-151 0 -246.5 109.5t-95.5 281.5q0 188 120 322.5t291 134.5q104 0 176 -69t72 -169q0 -130 -131 -198.5t-385 -73.5q8 -91 63 -147
t138 -56q118 2 192.5 61.5t175.5 235.5q12 28 38.5 36t55.5 -7q26 -14 31.5 -43t-6.5 -47q-121 -208 -227.5 -289.5t-261.5 -81.5zM86 440q169 1 273 39t104 94q0 41 -33 71t-80 30q-57 0 -106 -25t-80 -63.5t-50 -75.5t-28 -70z" />
    <glyph glyph-name="eacute" unicode="&#xe9;" horiz-adv-x="710" 
d="M373 911q-27 0 -48.5 19.5t-21.5 46.5q0 22 14 39l132 194q22 31 53 31q27 0 48 -19t21 -46q0 -22 -14 -39l-131 -195q-22 -31 -53 -31zM281 -39q-151 0 -246.5 109.5t-95.5 281.5q0 188 120 322.5t291 134.5q104 0 176 -69t72 -169q0 -130 -131 -198.5t-385 -73.5
q8 -91 63 -147t138 -56q118 2 192.5 61.5t175.5 235.5q12 28 38.5 36t55.5 -7q26 -14 31.5 -43t-6.5 -47q-121 -208 -227.5 -289.5t-261.5 -81.5zM86 440q169 1 273 39t104 94q0 41 -33 71t-80 30q-57 0 -106 -25t-80 -63.5t-50 -75.5t-28 -70z" />
    <glyph glyph-name="ecircumflex" unicode="&#xea;" horiz-adv-x="710" 
d="M518 872q-26 0 -47 21q-17 18 -37.5 37t-48 43.5t-41.5 36.5l-125 -117q-19 -19 -47 -19q-26 0 -46 19t-20 45t25 51l168 162q23 20 49 20q32 0 47 -22l168 -160q23 -23 23 -49q0 -28 -20 -48t-48 -20zM281 -39q-151 0 -246.5 109.5t-95.5 281.5q0 188 120 322.5
t291 134.5q104 0 176 -69t72 -169q0 -130 -131 -198.5t-385 -73.5q8 -91 63 -147t138 -56q118 2 192.5 61.5t175.5 235.5q12 28 38.5 36t55.5 -7q26 -14 31.5 -43t-6.5 -47q-121 -208 -227.5 -289.5t-261.5 -81.5zM86 440q169 1 273 39t104 94q0 41 -33 71t-80 30
q-57 0 -106 -25t-80 -63.5t-50 -75.5t-28 -70z" />
    <glyph glyph-name="edieresis" unicode="&#xeb;" horiz-adv-x="710" 
d="M195 971q-35 0 -60.5 26.5t-25.5 63.5q0 34 25.5 58t60.5 24t60.5 -24t25.5 -58q0 -37 -25.5 -63.5t-60.5 -26.5zM457 971q-35 0 -61.5 26.5t-26.5 63.5q0 34 25.5 58t62.5 24q35 0 60.5 -24t25.5 -58q0 -37 -25.5 -63.5t-60.5 -26.5zM281 -39q-151 0 -246.5 109.5
t-95.5 281.5q0 188 120 322.5t291 134.5q104 0 176 -69t72 -169q0 -130 -131 -198.5t-385 -73.5q8 -91 63 -147t138 -56q118 2 192.5 61.5t175.5 235.5q12 28 38.5 36t55.5 -7q26 -14 31.5 -43t-6.5 -47q-121 -208 -227.5 -289.5t-261.5 -81.5zM86 440q169 1 273 39t104 94
q0 41 -33 71t-80 30q-57 0 -106 -25t-80 -63.5t-50 -75.5t-28 -70z" />
    <glyph glyph-name="igrave" unicode="&#xec;" horiz-adv-x="618" 
d="M221 913q-31 0 -53 31l-135 195q-10 15 -10 37q0 27 21 46t48 19q31 0 51 -29l131 -194q15 -18 15 -39q0 -26 -21 -46t-47 -20zM309 -41q-70 0 -111.5 67.5t-41.5 178.5v295l-97 -168q-38 -52 -90 -25q-37 19 -37 55q0 15 11 33l223 385q17 31 57 31q28 0 48 -20t20 -48
v-540q0 -56 12.5 -85t34.5 -20q24 9 78 74q12 14 24 31t30 45t26.5 41.5t33.5 55t31 50.5q18 35 57 35q20 0 33 -8q35 -18 35 -57q0 -20 -8 -33q-118 -195 -170 -256q-48 -55 -100 -86t-99 -31z" />
    <glyph glyph-name="iacute" unicode="&#xed;" horiz-adv-x="618" 
d="M266 911q-27 0 -48 19.5t-21 46.5q0 22 14 39l131 194q22 31 53 31q27 0 48.5 -19t21.5 -46q0 -22 -14 -39l-132 -195q-22 -31 -53 -31zM309 -41q-70 0 -111.5 67.5t-41.5 178.5v295l-97 -168q-38 -52 -90 -25q-37 19 -37 55q0 15 11 33l223 385q17 31 57 31q28 0 48 -20
t20 -48v-540q0 -56 12.5 -85t34.5 -20q24 9 78 74q12 14 24 31t30 45t26.5 41.5t33.5 55t31 50.5q18 35 57 35q20 0 33 -8q35 -18 35 -57q0 -20 -8 -33q-118 -195 -170 -256q-48 -55 -100 -86t-99 -31z" />
    <glyph glyph-name="icircumflex" unicode="&#xee;" horiz-adv-x="618" 
d="M399 872q-26 0 -47 21q-17 18 -37.5 37t-48 43.5t-41.5 36.5l-125 -117q-19 -19 -47 -19q-26 0 -45.5 19t-19.5 45q0 27 24 51l168 162q23 20 49 20q32 0 47 -22l168 -160q23 -23 23 -49q0 -28 -20 -48t-48 -20zM309 -41q-70 0 -111.5 67.5t-41.5 178.5v295l-97 -168
q-38 -52 -90 -25q-37 19 -37 55q0 15 11 33l223 385q17 31 57 31q28 0 48 -20t20 -48v-540q0 -56 12.5 -85t34.5 -20q24 9 78 74q12 14 24 31t30 45t26.5 41.5t33.5 55t31 50.5q18 35 57 35q20 0 33 -8q35 -18 35 -57q0 -20 -8 -33q-118 -195 -170 -256q-48 -55 -100 -86
t-99 -31z" />
    <glyph glyph-name="idieresis" unicode="&#xef;" horiz-adv-x="618" 
d="M94 971q-35 0 -60.5 26.5t-25.5 63.5q0 34 25.5 58t60.5 24t60.5 -24t25.5 -58q0 -37 -25.5 -63.5t-60.5 -26.5zM356 971q-35 0 -61.5 26.5t-26.5 63.5q0 34 25.5 58t62.5 24q35 0 60.5 -24t25.5 -58q0 -37 -25.5 -63.5t-60.5 -26.5zM309 -41q-70 0 -111.5 67.5
t-41.5 178.5v295l-97 -168q-38 -52 -90 -25q-37 19 -37 55q0 15 11 33l223 385q17 31 57 31q28 0 48 -20t20 -48v-540q0 -56 12.5 -85t34.5 -20q24 9 78 74q12 14 24 31t30 45t26.5 41.5t33.5 55t31 50.5q18 35 57 35q20 0 33 -8q35 -18 35 -57q0 -20 -8 -33
q-118 -195 -170 -256q-48 -55 -100 -86t-99 -31z" />
    <glyph glyph-name="ntilde" unicode="&#xf1;" horiz-adv-x="1269" 
d="M748 870q-85 0 -168 64q-52 39 -93 39q-9 0 -17.5 -2.5t-14 -5t-12.5 -8t-10.5 -8.5t-9.5 -9.5t-7 -7.5q-23 -23 -51 -23t-48 19t-20 47q0 22 10 39q16 28 67 58t115 30q87 0 170 -64q47 -37 89 -37q44 0 73 37q19 24 46 26.5t45 -13t26 -38.5t-10 -50q-19 -31 -68 -62
t-112 -31zM330 -43q-28 0 -47 19t-19 47v655q0 4 -2 4q-4 0 -16 -18l-187 -332q-35 -53 -90 -25q-26 14 -33.5 38t7.5 50q8 13 80.5 146.5t103.5 185.5q51 86 139 86q43 0 77.5 -23t47.5 -63q121 90 262 90q122 0 205.5 -66t83.5 -178v-370q0 -101 37 -101q25 0 88 70
q12 14 24 31t30 45t26.5 41.5t33.5 55t31 50.5q14 27 43.5 33.5t47.5 -6.5q27 -14 33.5 -42.5t-7.5 -47.5q-118 -195 -170 -256q-45 -53 -97 -83t-101 -30q-58 0 -97 43.5t-51 120.5q-4 25 -4 76v370q0 44 -46.5 81.5t-113.5 37.5q-131 0 -250 -141v-528q0 -28 -20 -47
t-49 -19z" />
    <glyph glyph-name="ograve" unicode="&#xf2;" horiz-adv-x="919" 
d="M371 913q-32 0 -54 31l-135 195q-10 15 -10 37q0 27 21.5 46t48.5 19q31 0 51 -29l131 -194q14 -17 14 -39q0 -26 -20.5 -46t-46.5 -20zM342 -43q-172 0 -287.5 127.5t-115.5 316.5q0 109 54 202t143.5 146.5t191.5 53.5q19 0 55 -4q29 -4 45 -24.5t16 -45.5q24 6 50 6
q58 0 117.5 -34t105.5 -99q61 -82 61 -225q0 -27 -2 -39q62 15 86 57q18 35 58 35q19 0 32 -8q35 -18 35 -57q0 -20 -8 -33q-38 -67 -100 -93t-140 -32q-123 -250 -372 -250h-25zM352 88q157 -6 242 137q-65 17 -116 52.5t-78.5 74t-45 82t-22.5 72.5t-4 47q3 69 28 109
q-28 4 -41 4q-59 0 -106 -29q-62 -35 -98.5 -101t-36.5 -141q0 -126 82 -216.5t196 -90.5zM645 344l2 33q0 100 -37 149q-54 80 -118 80q-35 0 -35 -59l2 -27q14 -68 62.5 -114.5t123.5 -61.5z" />
    <glyph glyph-name="oacute" unicode="&#xf3;" horiz-adv-x="919" 
d="M428 911q-27 0 -48.5 19.5t-21.5 46.5q0 21 15 39l131 194q22 31 53 31q27 0 48.5 -19t21.5 -46q0 -21 -15 -39l-131 -195q-22 -31 -53 -31zM342 -43q-172 0 -287.5 127.5t-115.5 316.5q0 109 54 202t143.5 146.5t191.5 53.5q19 0 55 -4q29 -4 45 -24.5t16 -45.5
q24 6 50 6q58 0 117.5 -34t105.5 -99q61 -82 61 -225q0 -27 -2 -39q62 15 86 57q18 35 58 35q19 0 32 -8q35 -18 35 -57q0 -20 -8 -33q-38 -67 -100 -93t-140 -32q-123 -250 -372 -250h-25zM352 88q157 -6 242 137q-65 17 -116 52.5t-78.5 74t-45 82t-22.5 72.5t-4 47
q3 69 28 109q-28 4 -41 4q-59 0 -106 -29q-62 -35 -98.5 -101t-36.5 -141q0 -126 82 -216.5t196 -90.5zM645 344l2 33q0 100 -37 149q-54 80 -118 80q-35 0 -35 -59l2 -27q14 -68 62.5 -114.5t123.5 -61.5z" />
    <glyph glyph-name="ocircumflex" unicode="&#xf4;" horiz-adv-x="919" 
d="M539 872q-26 0 -47 21q-17 18 -37.5 37t-48 43.5t-41.5 36.5l-125 -117q-19 -19 -47 -19q-26 0 -46 19t-20 45t25 51l167 162q23 20 50 20q32 0 47 -22l168 -160q22 -22 22 -49q0 -28 -19.5 -48t-47.5 -20zM342 -43q-172 0 -287.5 127.5t-115.5 316.5q0 109 54 202
t143.5 146.5t191.5 53.5q19 0 55 -4q29 -4 45 -24.5t16 -45.5q24 6 50 6q58 0 117.5 -34t105.5 -99q61 -82 61 -225q0 -27 -2 -39q62 15 86 57q18 35 58 35q19 0 32 -8q35 -18 35 -57q0 -20 -8 -33q-38 -67 -100 -93t-140 -32q-123 -250 -372 -250h-25zM352 88
q157 -6 242 137q-65 17 -116 52.5t-78.5 74t-45 82t-22.5 72.5t-4 47q3 69 28 109q-28 4 -41 4q-59 0 -106 -29q-62 -35 -98.5 -101t-36.5 -141q0 -126 82 -216.5t196 -90.5zM645 344l2 33q0 100 -37 149q-54 80 -118 80q-35 0 -35 -59l2 -27q14 -68 62.5 -114.5
t123.5 -61.5z" />
    <glyph glyph-name="odieresis" unicode="&#xf6;" horiz-adv-x="919" 
d="M238 971q-35 0 -60.5 26.5t-25.5 63.5q0 34 25.5 58t60.5 24t60.5 -24t25.5 -58q0 -37 -25.5 -63.5t-60.5 -26.5zM500 971q-35 0 -61.5 26.5t-26.5 63.5q0 34 25.5 58t62.5 24q35 0 60.5 -24t25.5 -58q0 -37 -25.5 -63.5t-60.5 -26.5zM342 -43q-172 0 -287.5 127.5
t-115.5 316.5q0 109 54 202t143.5 146.5t191.5 53.5q19 0 55 -4q29 -4 45 -24.5t16 -45.5q24 6 50 6q58 0 117.5 -34t105.5 -99q61 -82 61 -225q0 -27 -2 -39q62 15 86 57q18 35 58 35q19 0 32 -8q35 -18 35 -57q0 -20 -8 -33q-38 -67 -100 -93t-140 -32
q-123 -250 -372 -250h-25zM352 88q157 -6 242 137q-65 17 -116 52.5t-78.5 74t-45 82t-22.5 72.5t-4 47q3 69 28 109q-28 4 -41 4q-59 0 -106 -29q-62 -35 -98.5 -101t-36.5 -141q0 -126 82 -216.5t196 -90.5zM645 344l2 33q0 100 -37 149q-54 80 -118 80q-35 0 -35 -59
l2 -27q14 -68 62.5 -114.5t123.5 -61.5z" />
    <glyph glyph-name="divide" unicode="&#xf7;" horiz-adv-x="552" 
d="M276 780q-38 0 -65 27t-27 65q0 37 27.5 65t64.5 28t65 -28t28 -65q0 -38 -27.5 -65t-65.5 -27zM276 526q37 0 65 -27.5t28 -64.5t-28 -64.5t-65 -27.5t-64.5 27.5t-27.5 64.5t27.5 64.5t64.5 27.5z" />
    <glyph glyph-name="oslash" unicode="&#xf8;" horiz-adv-x="1208" 
d="M170 -51q-26 0 -47 20.5t-21 48.5q0 24 21 45l90 91q-94 134 -94 288q0 132 65.5 244t177.5 177t244 65q161 0 295 -103l92 90q21 21 45 21q26 0 47 -21t21 -49q0 -26 -21 -47l-88 -88q95 -135 95 -289q0 -132 -65 -244t-177 -177.5t-244 -65.5q-166 0 -299 102l-92 -90
q-21 -18 -45 -18zM309 246l498 489q-89 62 -201 62q-148 0 -252 -103.5t-104 -251.5q0 -107 59 -196zM606 86q148 0 251.5 104t103.5 252q0 109 -60 197l-502 -489q92 -64 207 -64z" />
    <glyph glyph-name="ugrave" unicode="&#xf9;" horiz-adv-x="1212" 
d="M518 913q-31 0 -53 31l-135 195q-11 17 -11 37q0 27 21.5 46t48.5 19q31 0 51 -29l131 -194q15 -18 15 -39q0 -26 -21 -46t-47 -20zM903 -35q-55 0 -93 38t-52 106q-78 -59 -176.5 -97.5t-186.5 -38.5q-107 0 -172 64t-65 203v266l-99 -174q-17 -27 -43 -33t-47 8
q-24 15 -32.5 37t6.5 51l223 385q20 35 57 35q30 0 50 -16.5t20 -42.5v-516q0 -72 36 -106t97 -34q84 0 181.5 56.5t142.5 132.5v469q0 32 20 48.5t47 16.5q29 0 48.5 -16.5t19.5 -48.5v-555q0 -101 37 -101q25 0 88 70q12 14 24 31t30 45t26.5 41.5t33.5 55t31 50.5
q18 35 57 35q20 0 33 -8q35 -18 35 -57q0 -20 -8 -33q-118 -195 -170 -256q-43 -51 -96.5 -81t-102.5 -30z" />
    <glyph glyph-name="uacute" unicode="&#xfa;" horiz-adv-x="1212" 
d="M541 911q-27 0 -48.5 19.5t-21.5 46.5q0 22 14 39l131 194q22 31 54 31q27 0 48 -19t21 -46q0 -22 -14 -39l-131 -195q-22 -31 -53 -31zM903 -35q-55 0 -93 38t-52 106q-78 -59 -176.5 -97.5t-186.5 -38.5q-107 0 -172 64t-65 203v266l-99 -174q-17 -27 -43 -33t-47 8
q-24 15 -32.5 37t6.5 51l223 385q20 35 57 35q30 0 50 -16.5t20 -42.5v-516q0 -72 36 -106t97 -34q84 0 181.5 56.5t142.5 132.5v469q0 32 20 48.5t47 16.5q29 0 48.5 -16.5t19.5 -48.5v-555q0 -101 37 -101q25 0 88 70q12 14 24 31t30 45t26.5 41.5t33.5 55t31 50.5
q18 35 57 35q20 0 33 -8q35 -18 35 -57q0 -20 -8 -33q-118 -195 -170 -256q-43 -51 -96.5 -81t-102.5 -30z" />
    <glyph glyph-name="ucircumflex" unicode="&#xfb;" horiz-adv-x="1212" 
d="M680 872q-26 0 -47 21q-17 18 -37.5 37t-48 43.5t-41.5 36.5l-125 -117q-19 -19 -47 -19q-26 0 -46 19t-20 45t25 51l168 162q23 20 49 20q32 0 47 -22l168 -160q23 -23 23 -49q0 -28 -20 -48t-48 -20zM903 -35q-55 0 -93 38t-52 106q-78 -59 -176.5 -97.5t-186.5 -38.5
q-107 0 -172 64t-65 203v266l-99 -174q-17 -27 -43 -33t-47 8q-24 15 -32.5 37t6.5 51l223 385q20 35 57 35q30 0 50 -16.5t20 -42.5v-516q0 -72 36 -106t97 -34q84 0 181.5 56.5t142.5 132.5v469q0 32 20 48.5t47 16.5q29 0 48.5 -16.5t19.5 -48.5v-555q0 -101 37 -101
q25 0 88 70q12 14 24 31t30 45t26.5 41.5t33.5 55t31 50.5q18 35 57 35q20 0 33 -8q35 -18 35 -57q0 -20 -8 -33q-118 -195 -170 -256q-43 -51 -96.5 -81t-102.5 -30z" />
    <glyph glyph-name="udieresis" unicode="&#xfc;" horiz-adv-x="1212" 
d="M395 971q-35 0 -60.5 26.5t-25.5 63.5q0 34 25.5 58t60.5 24t60.5 -24t25.5 -58q0 -37 -25.5 -63.5t-60.5 -26.5zM657 971q-35 0 -61.5 26.5t-26.5 63.5q0 34 25.5 58t62.5 24q35 0 60.5 -24t25.5 -58q0 -37 -25.5 -63.5t-60.5 -26.5zM903 -35q-55 0 -93 38t-52 106
q-78 -59 -176.5 -97.5t-186.5 -38.5q-107 0 -172 64t-65 203v266l-99 -174q-17 -27 -43 -33t-47 8q-24 15 -32.5 37t6.5 51l223 385q20 35 57 35q30 0 50 -16.5t20 -42.5v-516q0 -72 36 -106t97 -34q84 0 181.5 56.5t142.5 132.5v469q0 32 20 48.5t47 16.5q29 0 48.5 -16.5
t19.5 -48.5v-555q0 -101 37 -101q25 0 88 70q12 14 24 31t30 45t26.5 41.5t33.5 55t31 50.5q18 35 57 35q20 0 33 -8q35 -18 35 -57q0 -20 -8 -33q-118 -195 -170 -256q-43 -51 -96.5 -81t-102.5 -30z" />
    <glyph glyph-name="dotlessi" unicode="&#x131;" horiz-adv-x="192" 
d="M100 -66q-27 0 -48 18t-21 50v1069q0 32 19 50t46 18t46.5 -18t19.5 -50v-1067q4 -33 -14.5 -51.5t-47.5 -18.5z" />
    <glyph glyph-name="OE" unicode="&#x152;" horiz-adv-x="1726" 
d="M549 -37q-92 0 -166 28.5t-124 74.5t-87.5 114t-58 136t-33 152.5t-16 151t-3.5 142.5q0 345 131 550.5t355 205.5q194 0 309 -183v117q0 66 66 66h612q32 0 50 -19.5t18 -46.5t-18 -46.5t-50 -19.5h-547v-552l2 -52h541q32 0 48.5 -19t16.5 -46q0 -29 -16.5 -48.5
t-48.5 -19.5h-541l-2 -41v-510h547q31 0 48 -19.5t17 -47.5t-17 -48t-48 -20h-612q-31 0 -48.5 17.5t-17.5 48.5v90q-111 -156 -307 -156zM559 94q139 0 218 169t79 464q-3 300 -87.5 479.5t-221.5 179.5q-157 -2 -253.5 -174t-96.5 -450q0 -342 88 -505t274 -163z" />
    <glyph glyph-name="oe" unicode="&#x153;" horiz-adv-x="1419" 
d="M989 -43q-95 0 -171 47t-120 133q-125 -178 -325 -178h-25q-172 0 -290.5 131t-118.5 320q0 73 25 139t63.5 111.5t84.5 80t87 51.5t71 19q28 0 49 -20.5t21 -49.5q0 -47 -55 -63q-13 -3 -31.5 -10.5t-52.5 -29t-60 -50t-46.5 -77.5t-20.5 -108q0 -126 85 -219.5
t199 -93.5q81 -3 168.5 65t114.5 150q-127 15 -214.5 82t-96.5 160q-7 90 39 141t120 51q60 0 120 -33.5t108 -99.5q59 96 148 149.5t194 53.5q104 0 176 -69t72 -169q0 -130 -131 -198.5t-385 -73.5q8 -93 62.5 -150t137.5 -57q80 1 135.5 26.5t109.5 89t124 185.5
q11 27 41 36t55 -9q31 -21 31 -55q0 -20 -8 -33q-120 -209 -228 -292t-262 -83zM795 440q169 1 272.5 39t103.5 94q0 42 -32.5 71.5t-79.5 29.5q-57 0 -106 -25t-80 -63.5t-50 -75.5t-28 -70zM647 442q-11 67 -55.5 115.5t-97.5 48.5q-35 0 -35 -37q0 -40 48.5 -80
t139.5 -47z" />
    <glyph glyph-name="florin" unicode="&#x192;" horiz-adv-x="133" 
d="M-580 -35q-29 0 -44 19.5t-15 46.5t15 46t44 19q107 0 181 6t146.5 24t126.5 51.5t104.5 86.5t97.5 131q14 27 43 33.5t47 -6.5q28 -14 34.5 -42.5t-7.5 -47.5q-58 -93 -122 -159t-130 -106.5t-151 -63t-169.5 -30.5t-200.5 -8z" />
    <glyph glyph-name="circumflex" unicode="&#x2c6;" horiz-adv-x="669" 
d="M422 883q-27 0 -47 20q-17 18 -37.5 37t-48 43.5t-41.5 36.5l-125 -117q-18 -18 -47 -18q-27 0 -46.5 18.5t-19.5 44.5t25 51l168 162q24 21 49 21q16 0 29 -8t18 -15l168 -160q22 -22 22 -49q0 -28 -19.5 -47.5t-47.5 -19.5z" />
    <glyph glyph-name="caron" unicode="&#x2c7;" horiz-adv-x="477" 
d="M240 1075q-24 0 -45 21l-170 161q-25 25 -25 52q0 26 20.5 44.5t47.5 18.5t45 -18l125 -117q14 12 41.5 36.5t48 43.5t37.5 37q20 20 47 20q26 0 45.5 -19.5t19.5 -45.5q0 -30 -22 -52l-164 -159q-23 -23 -51 -23z" />
    <glyph glyph-name="breve" unicode="&#x2d8;" horiz-adv-x="659" 
d="M330 1085q-121 0 -200 64t-79 160q0 21 12.5 38t32.5 23q33 8 54 -4.5t28 -36.5q13 -61 45 -86.5t107 -25.5t106.5 25.5t44.5 86.5q8 26 29.5 37t52.5 4q20 -6 32.5 -23t12.5 -38q0 -96 -78.5 -160t-199.5 -64z" />
    <glyph glyph-name="ring" unicode="&#x2da;" horiz-adv-x="290" 
d="M141 1219q-59 0 -100 41.5t-41 99.5t41 99.5t100 41.5t100.5 -41.5t41.5 -99.5t-41.5 -99.5t-100.5 -41.5zM141 1280q37 0 58.5 21.5t21.5 58.5t-21.5 58.5t-58.5 21.5t-58.5 -21.5t-21.5 -58.5t21.5 -58.5t58.5 -21.5z" />
    <glyph glyph-name="ogonek" unicode="&#x2db;" horiz-adv-x="604" 
d="M319 -342q-96 0 -156.5 51t-60.5 133q0 61 28.5 116t76.5 91q70 48 180 51q25 0 42.5 -13.5t21.5 -32.5t-0.5 -38.5t-22.5 -33t-45 -13.5q-86 0 -129 -59q-32 -44 -14 -83q14 -32 59 -32q66 0 115 19q34 17 61.5 -6t26.5 -60t-37 -53q-76 -37 -146 -37z" />
    <glyph glyph-name="tilde" unicode="&#x2dc;" horiz-adv-x="745" 
d="M451 805q-86 0 -168 63q-52 39 -93 39q-9 0 -17.5 -2.5t-14 -5t-12.5 -8t-10.5 -8.5t-9.5 -9.5t-7 -7.5q-22 -22 -51 -22q-28 0 -48 19t-20 46q0 21 10 39q16 28 67.5 58t115.5 30q87 0 169 -63q47 -37 89 -37q44 0 73 37q19 24 46 26.5t45 -13.5t26 -39t-10 -50
q-19 -31 -67.5 -61.5t-112.5 -30.5z" />
    <glyph glyph-name="hungarumlaut" unicode="&#x2dd;" horiz-adv-x="677" 
d="M170 1223q-27 0 -47.5 19.5t-20.5 45.5q0 23 17 43l141 187q20 26 49 26q28 0 50 -21t22 -48q0 -23 -12 -37l-148 -189q-20 -26 -51 -26zM362 1225q-25 0 -44 18.5t-19 44.5q0 24 16 43l142 187q20 26 49 26q27 0 48 -19.5t21 -45.5q0 -22 -14 -39l-147 -189
q-20 -26 -52 -26z" />
    <glyph glyph-name="uni03A9" unicode="&#x3a9;" horiz-adv-x="1470" 
d="M279 -31q-32 0 -50 19.5t-18 46.5t18 46t50 19h116q-284 307 -284 598q0 205 79.5 366.5t222.5 252t324 90.5q132 0 246 -53t195 -146.5t127.5 -225.5t46.5 -284q0 -142 -79 -297.5t-224 -300.5h116q31 0 48.5 -19.5t17.5 -45.5q0 -27 -17.5 -46.5t-48.5 -19.5h-342
q-17 0 -28 12.5t-11 28.5q0 5 11 27q15 16 64 62.5t91 88t95.5 106t91 124t64 134.5t26.5 146q0 255 -137.5 416.5t-352.5 161.5q-223 0 -362 -160.5t-139 -417.5q0 -69 23.5 -142t53 -127.5t83 -122.5t85 -102t89 -92t67.5 -69q14 -14 14 -35q0 -25 -26 -37l-13 -2h-333z
" />
    <glyph glyph-name="pi" unicode="&#x3c0;" horiz-adv-x="921" 
d="M246 -45q-28 0 -47 18.5t-19 46.5v658q-52 -9 -76 -35q-20 -20 -49 -20t-47 18q-20 20 -20 47q0 23 16 45q77 86 236 86q40 0 63 -2q19 -1 85 -8.5t99 -7.5q79 0 371 20q33 2 53.5 -16.5t20.5 -50.5q0 -28 -17.5 -46.5t-46.5 -21.5l-80 -4v-662q0 -29 -19 -47t-50 -18
q-29 0 -47.5 18t-18.5 47v654q-71 -6 -147 -6q-28 0 -60 2t-71 5.5t-60 4.5v-660q0 -28 -20 -46.5t-49 -18.5z" />
    <glyph glyph-name="endash" unicode="&#x2013;" horiz-adv-x="1464" 
d="M78 344q-32 0 -50 20t-18 48q0 27 18 46t50 19h1116q31 0 48.5 -19.5t17.5 -45.5q0 -27 -18 -47.5t-50 -20.5h-1114z" />
    <glyph glyph-name="quoteleft" unicode="&#x2018;" horiz-adv-x="493" 
d="M156 1139q0 -25 -13.5 -41.5t-32.5 -20.5t-38.5 0.5t-33 21.5t-13.5 42v235q0 30 20.5 47.5t45 17.5t45 -17.5t20.5 -47.5v-237z" />
    <glyph glyph-name="quoteright" unicode="&#x2019;" horiz-adv-x="493" 
d="M156 1139q0 -25 -13.5 -41.5t-32.5 -20.5t-38.5 0.5t-33 21.5t-13.5 42v235q0 30 20.5 47.5t45 17.5t45 -17.5t20.5 -47.5v-237z" />
    <glyph glyph-name="quotesinglbase" unicode="&#x201a;" horiz-adv-x="493" 
d="M156 791q0 -25 -13.5 -41.5t-32.5 -20.5t-38.5 0.5t-33 21.5t-13.5 42v235q0 30 20.5 47.5t45 17.5t45 -17.5t20.5 -47.5v-237z" />
    <glyph glyph-name="quotedblleft" unicode="&#x201c;" horiz-adv-x="815" 
d="M287 1061q-35 0 -64 19.5t-35 49.5q-13 65 21.5 158.5t79.5 138.5q19 19 47 19t50 -20t22 -46q0 -25 -23 -45q-31 -31 -47 -82q55 -30 55 -86q0 -43 -31.5 -74.5t-74.5 -31.5zM510 1061q-35 0 -63.5 19.5t-34.5 49.5q-13 65 21 158.5t79 138.5q19 19 47 19t50 -20t22 -46
q0 -25 -23 -45q-31 -31 -47 -82q55 -30 55 -86q0 -43 -31.5 -74.5t-74.5 -31.5z" />
    <glyph glyph-name="quotedblright" unicode="&#x201d;" horiz-adv-x="815" 
d="M256 1079q-28 0 -50 20t-22 46q0 25 23 45q31 31 47 82q-55 30 -55 86q0 43 31.5 74.5t74.5 31.5q35 0 63.5 -19.5t34.5 -49.5q13 -65 -21 -158.5t-79 -138.5q-19 -19 -47 -19zM479 1079q-28 0 -49.5 20t-21.5 46t22 45q31 31 47 82q-55 30 -55 86q0 43 31.5 74.5
t74.5 31.5q35 0 64 -19.5t35 -49.5q13 -65 -21.5 -158.5t-79.5 -138.5q-19 -19 -47 -19z" />
    <glyph glyph-name="quotedblbase" unicode="&#x201e;" horiz-adv-x="815" 
d="M256 -211q-28 0 -50 20t-22 46q0 25 23 45q31 31 47 82q-55 30 -55 86q0 43 31.5 74.5t74.5 31.5q35 0 63.5 -20t34.5 -50q14 -64 -20.5 -156.5t-79.5 -140.5q-18 -18 -47 -18zM479 -211q-28 0 -49.5 20t-21.5 46t22 45q31 31 47 82q-55 30 -55 86q0 43 31.5 74.5
t74.5 31.5q35 0 64 -20t35 -50q14 -64 -21 -156.5t-80 -140.5q-18 -18 -47 -18z" />
    <glyph glyph-name="dagger" unicode="&#x2020;" horiz-adv-x="1200" 
d="M606 -391q-27 0 -47 17.5t-20 49.5l-2 1213l-418 -2q-31 0 -48.5 19.5t-17.5 45.5q0 27 18 47.5t50 20.5l416 2l-2 436q0 32 19 50t46 18t46.5 -18t19.5 -50l2 -436l415 2q32 0 50 -19.5t18 -46.5t-18 -46t-50 -19l-415 -2l4 -1217q0 -30 -19.5 -47.5t-46.5 -17.5z" />
    <glyph glyph-name="daggerdbl" unicode="&#x2021;" horiz-adv-x="1200" 
d="M590 -385q-27 0 -46.5 18.5t-19.5 51.5v434h-413q-32 0 -50 19.5t-18 47.5q0 25 18 44.5t48 19.5h415v651h-415q-30 0 -48 19.5t-18 44.5q0 28 18 47.5t50 19.5h413v434q0 33 19.5 51.5t46.5 18.5t46 -18t19 -50v-436h418q32 0 50 -19t18 -46t-18 -46.5t-50 -19.5h-418
v-651h418q32 0 50 -19.5t18 -46.5t-18 -46t-50 -19h-418v-436q0 -32 -19 -50t-46 -18z" />
    <glyph glyph-name="bullet" unicode="&#x2022;" horiz-adv-x="634" 
d="M317 225q-114 0 -195 81t-81 194q0 117 75 196.5t185 79.5q115 0 204 -83.5t89 -192.5q0 -113 -81.5 -194t-195.5 -81z" />
    <glyph glyph-name="ellipsis" unicode="&#x2026;" horiz-adv-x="1085" 
d="M197 -31q-38 0 -66.5 28t-28.5 66q0 40 28.5 68.5t66.5 28.5q41 0 69.5 -28.5t28.5 -68.5t-28.5 -67t-69.5 -27zM590 -31q-38 0 -66 28t-28 66q0 40 28 68.5t66 28.5q41 0 69.5 -28.5t28.5 -68.5t-28.5 -67t-69.5 -27zM987 -31q-38 0 -66 28t-28 66q0 40 28 68.5t66 28.5
q41 0 69.5 -28.5t28.5 -68.5t-28.5 -67t-69.5 -27z" />
    <glyph glyph-name="perthousand" unicode="&#x2030;" horiz-adv-x="1556" 
d="M256 -29q-28 0 -50 19.5t-22 46.5q0 13 11 35v-2l749 1421q17 35 55 35q27 0 47.5 -19.5t20.5 -46.5q0 -17 -8 -33l-748 -1421q-20 -35 -55 -35zM504 1133q-77 0 -133 54.5t-56 129.5q0 76 56 131t133 55q76 0 131 -54.5t55 -131.5q0 -75 -55 -129.5t-131 -54.5z
M504 1257q23 0 42 18t19 38q0 23 -20 44t-41 21q-22 0 -41 -19t-19 -42q0 -22 19 -41t41 -19zM752 -31q-78 0 -132.5 55.5t-54.5 133.5q0 76 55 131t132 55t132.5 -55t55.5 -131q0 -78 -55 -133.5t-133 -55.5zM1184 -31q-78 0 -132.5 55.5t-54.5 133.5q0 76 55 131t132 55
t132.5 -55t55.5 -131q0 -78 -55 -133.5t-133 -55.5zM752 98q24 0 42.5 16.5t18.5 37.5q0 29 -17.5 48t-43.5 19q-22 0 -42 -19.5t-20 -41.5t19.5 -41t42.5 -19zM1184 98q24 0 42.5 16.5t18.5 37.5q0 29 -17.5 48t-43.5 19q-22 0 -42 -19.5t-20 -41.5t19.5 -41t42.5 -19z" />
    <glyph glyph-name="guilsinglleft" unicode="&#x2039;" horiz-adv-x="671" 
d="M424 266q-34 0 -59 37v-4l-164 201q-17 20 -17 49q0 32 19 51l162 207q25 35 59 35q25 0 44 -19t19 -45q0 -21 -16 -43q-38 -48 -77.5 -101t-63.5 -83l141 -178q16 -22 16 -43q0 -26 -18.5 -45t-44.5 -19z" />
    <glyph glyph-name="guilsinglright" unicode="&#x203a;" horiz-adv-x="671" 
d="M248 270q-25 0 -44.5 19t-19.5 45q0 19 17 43l141 178q-24 30 -63.5 83t-77.5 101q-17 24 -17 43q0 26 19 45t45 19q34 0 59 -35l160 -205q20 -20 20 -53q0 -30 -16 -51l-164 -199q-29 -33 -59 -33z" />
    <glyph glyph-name="fraction" unicode="&#x2044;" horiz-adv-x="620" 
d="M-166 -211q-27 0 -49.5 20t-22.5 48q0 15 9 30l856 1768q16 37 55 37q27 0 49.5 -20t22.5 -48q0 -16 -9 -31l-854 -1765q-16 -39 -57 -39z" />
    <glyph glyph-name="Euro" unicode="&#x20ac;" horiz-adv-x="1275" 
d="M745 -45q-210 0 -329.5 151t-147.5 447h-129q-31 0 -48 19t-17 46t17 46.5t48 19.5h125l-2 70v26h-123q-31 0 -48 20t-17 48q0 27 17 46t48 19h129q29 279 155.5 437.5t321.5 158.5q141 0 241.5 -88.5t146.5 -253.5q4 -16 4 -26q0 -31 -21.5 -49.5t-50.5 -18.5
q-50 0 -64 49h3q-80 256 -254 256q-132 0 -224 -125t-120 -340h325q32 0 49 -19t17 -46q0 -28 -17 -48t-49 -20h-336v-26q0 -47 2 -70h334q32 0 49 -19.5t17 -46.5t-17 -46t-49 -19h-328q47 -467 359 -467q81 0 138.5 56t103.5 180q18 49 63 49q29 0 50.5 -19t21.5 -49
q0 -11 -4 -27q-106 -321 -390 -321z" />
    <glyph glyph-name="partialdiff" unicode="&#x2202;" horiz-adv-x="1275" 
d="M618 -53q-201 0 -317.5 124t-116.5 339q0 186 121 317t293 131q104 0 200.5 -44.5t162.5 -121.5v51q0 100 -15.5 183t-40.5 138.5t-59 98t-68 66.5t-71.5 39t-65.5 19.5t-53 4.5q-78 0 -131.5 -18t-108.5 -64q-19 -16 -41 -16q-27 0 -47 22t-20 50t22 47q72 58 149 84
t177 26q30 0 66 -6t86 -25.5t96.5 -49.5t94 -83t82.5 -121.5t57 -170.5t22 -224q0 -198 -29 -356q-35 -215 -148.5 -327.5t-296.5 -112.5zM618 78q135 0 210 75.5t106 243.5q13 66 -12 128.5t-75 106t-116 69.5t-133 26q-117 0 -200 -92.5t-83 -224.5q0 -161 77.5 -246.5
t225.5 -85.5z" />
    <glyph glyph-name="uni2206" unicode="&#x2206;" horiz-adv-x="1695" 
d="M250 -31q-34 0 -55 31l2 -2q-13 16 -13 37q0 19 9 31l634 1417l29 18h64l28 -20l559 -1422q4 -12 4 -22q0 -19 -10 -39l-2 -2q-20 -27 -53 -27h-1196zM309 100h1041l-488 1237z" />
    <glyph glyph-name="product" unicode="&#x220f;" horiz-adv-x="1581" 
d="M481 -256q-27 0 -47 18t-20 50l-4 1470h-160q-30 0 -48 19.5t-18 44.5q0 28 18 47.5t50 19.5h1077q32 0 50 -19t18 -46q0 -25 -17.5 -45t-48.5 -21h-147l4 -1472q0 -31 -19.5 -48.5t-46.5 -17.5t-47 18t-20 50l-4 1470h-508l4 -1472q0 -31 -19.5 -48.5t-46.5 -17.5z" />
    <glyph glyph-name="summation" unicode="&#x2211;" horiz-adv-x="1327" 
d="M254 -63q-30 0 -50 19.5t-20 45.5q0 14 15 37l493 637l-493 633q-15 22 -15 37q0 26 20 45.5t50 19.5h827q29 0 45.5 -20.5t16.5 -47.5t-16 -45t-46 -18h-692l428 -555q17 -27 17 -49q0 -28 -21 -53l-426 -555h694q30 0 46 -18.5t16 -45.5t-16.5 -47t-45.5 -20h-827z" />
    <glyph glyph-name="radical" unicode="&#x221a;" horiz-adv-x="1116" 
d="M567 -393q-34 0 -53 31l-262 614l-74 -31q-15 -6 -28 -6q-28 0 -46 20.5t-18 47.5q0 39 39 59l62 26t44.5 19t27 11t21 6.5t15.5 1.5q28 0 44 -27t76 -172q70 -168 126 -299l276 1540q6 28 24.5 42.5t41.5 14.5q30 0 50.5 -22.5t14.5 -59.5l-317 -1765
q-4 -24 -22.5 -37.5t-41.5 -13.5z" />
    <glyph glyph-name="infinity" unicode="&#x221e;" horiz-adv-x="1708" 
d="M514 145q-154 0 -242 108.5t-88 297.5t88 297t242 108q82 0 171 -71t169 -199q80 128 169 199t171 71q154 0 242 -108t88 -297t-88 -297.5t-242 -108.5q-81 0 -170.5 71.5t-169.5 199.5q-80 -128 -169.5 -199.5t-170.5 -71.5zM514 276q48 0 124 77.5t144 197.5
q-68 120 -144 197t-124 77q-97 0 -148 -69t-51 -205t51 -205.5t148 -69.5zM1194 276q97 0 148 69.5t51 205.5t-51 205t-148 69q-48 0 -124 -77t-144 -197q68 -120 144 -197.5t124 -77.5z" />
    <glyph glyph-name="integral" unicode="&#x222b;" horiz-adv-x="612" 
d="M289 -41q-135 0 -236 90q-18 21 -18 51q0 25 14 47q22 19 49 19q30 0 49 -19q55 -55 144 -55q59 0 110 26.5t78 74.5q25 48 19 149q-6 139 -289 293q-63 -143 -150 -303q-20 -33 -59 -33q-20 0 -35 10q-33 20 -33 58q0 10 11 28q56 104 108 218.5t75 177.5l24 63
q9 30 33 41t55 0q30 -10 39 -30t-1 -54l-16 -49q359 -211 371 -410q9 -147 -46.5 -241t-189.5 -136q-47 -16 -106 -16z" />
    <glyph glyph-name="approxequal" unicode="&#x2248;" horiz-adv-x="1386" 
d="M938 575q-15 1 -33 6t-32 10.5t-38 18t-35 19t-41 24t-40 23.5q-128 76 -203 84q-62 7 -112.5 -22t-98.5 -99q-31 -48 -92 -18q-24 11 -27.5 39t11.5 51q53 87 135 137q85 52 196 43q105 -9 258 -105q130 -75 164 -79q27 -3 55.5 18.5t79.5 85.5q17 22 43.5 25.5
t49.5 -13.5q22 -19 24.5 -44.5t-14.5 -47.5q-71 -93 -127.5 -127t-122.5 -29zM938 324q-13 1 -26.5 4t-30.5 9.5t-28.5 11.5t-32.5 16.5t-31 17.5t-35.5 21t-34.5 20q-128 76 -203 84q-62 7 -112.5 -22t-98.5 -99q-31 -48 -92 -18q-24 11 -27.5 39t11.5 51q53 87 135 137
q85 52 196 43q43 -4 94 -22.5t82 -35.5t82 -46q132 -77 164 -80q27 -3 55.5 18.5t79.5 85.5q18 22 44.5 26t48.5 -14q22 -19 24.5 -44.5t-14.5 -47.5q-71 -93 -127.5 -126.5t-122.5 -28.5z" />
    <glyph glyph-name="notequal" unicode="&#x2260;" horiz-adv-x="1185" 
d="M250 461q-31 0 -49 20.5t-18 45t18 45t49 20.5h209l96 119h-305q-31 0 -49 20.5t-18 45t18 45t49 20.5h407l72 86q15 19 36.5 24.5t39 -2.5t30.5 -23.5t12.5 -38.5t-16.5 -46h105q31 0 49 -20.5t18 -45t-18 -45t-49 -20.5h-213l-96 -119h309q31 0 49 -20.5t18 -45
t-18 -45t-49 -20.5h-412l-67 -80q-19 -24 -45.5 -25.5t-44.5 14.5t-26 40t11 51h-102z" />
    <glyph glyph-name="lessequal" unicode="&#x2264;" horiz-adv-x="1204" 
d="M221 655q-37 17 -37 59t37 54l707 242q26 7 47 1t31 -23.5t12 -36t-10 -36.5t-35 -26l-527 -176l527 -174q39 -13 42.5 -48.5t-23.5 -60t-64 -10.5zM268 221q-31 0 -49 20.5t-18 45t18 45t49 20.5h686q31 0 49 -20.5t18 -45t-18 -45t-49 -20.5h-686z" />
    <glyph glyph-name="greaterequal" unicode="&#x2265;" horiz-adv-x="1206" 
d="M231 539l527 174l-527 176q-23 8 -35 26t-10 36.5t12 36t31 23.5t47 -1l707 -242q39 -14 39 -56.5t-39 -56.5l-707 -235q-37 -14 -64 10.5t-23.5 60t42.5 48.5zM250 221q-31 0 -49 20.5t-18 45t18 45t49 20.5h686q31 0 49 -20.5t18 -45t-18 -45t-49 -20.5h-686z" />
    <glyph glyph-name="lozenge" unicode="&#x25ca;" horiz-adv-x="1243" 
d="M623 -39q-34 0 -52 25l-372 465q-15 22 -15 41q0 21 15 40l372 469q5 10 20 18.5t32 8.5q36 0 51 -27l370 -466q15 -18 15 -41q0 -20 -15 -41l-370 -467q-18 -25 -51 -25zM623 131l286 363l-286 364l-289 -364z" />
    <glyph glyph-name="fi" unicode="&#xfb01;" horiz-adv-x="1071" 
d="M1104 422q35 -18 35 -57q0 -18 -9 -33q-120 -199 -169 -256q-48 -55 -100 -86t-99 -31q-70 0 -112 67.5t-42 178.5v295l-94 -166l-2 -2q-66 -115 -260 -309l-4 -484q0 -128 -64 -215.5t-159 -87.5q-101 0 -161.5 79t-60.5 210q0 62 24.5 130.5t73.5 142.5t97 135t119 141
v358l-58 -100q-38 -52 -90 -25q-37 19 -37 55q0 15 11 33l174 299v549q0 120 65 200.5t162 80.5q104 0 159.5 -72.5t47.5 -196.5q-7 -109 -87 -260.5t-216 -351.5v-428q106 106 143 174l4 6q0 1 1 3t1 3l221 379q17 31 58 31q28 0 47.5 -20t19.5 -48v-540q0 -56 13 -85
t35 -20q23 8 77 74q36 43 146 223q18 35 57 35q20 0 33 -8zM248 1243v-362q67 112 112.5 217t55.5 159q25 134 -78 134q-33 0 -61.5 -44t-28.5 -104zM684 973q-35 0 -60.5 26.5t-25.5 61.5t24.5 59.5t61.5 24.5t61.5 -24.5t24.5 -59.5t-25.5 -61.5t-60.5 -26.5zM119 -461
v326q-182 -218 -182 -340q0 -77 24 -117t70 -37q29 -3 58.5 51.5t29.5 116.5z" />
    <glyph glyph-name="fl" unicode="&#xfb02;" horiz-adv-x="1140" 
d="M1174 422q27 -14 32.5 -42.5t-8.5 -47.5q-113 -192 -209.5 -281.5t-193.5 -89.5q-23 0 -40.5 1.5t-49 13t-52 31.5t-37 63t-16.5 102v313l-86 -151l-2 -2q-66 -115 -260 -309l-4 -484q0 -128 -64 -215.5t-159 -87.5q-101 0 -161.5 79t-60.5 210q0 62 24.5 130.5
t73.5 142.5t97 135t119 141v358l-58 -100q-38 -52 -90 -25q-37 19 -37 55q0 15 11 33l174 299v549q0 120 65 200.5t162 80.5q104 0 159.5 -72.5t47.5 -196.5q-7 -109 -87 -260.5t-216 -351.5v-428q103 103 145 176q0 1 1 2t1 2q0 2 4 6l201 347v475q0 131 63.5 219t159.5 88
q98 0 159.5 -74.5t61.5 -191.5q-1 -47 -16.5 -95t-50.5 -106t-65 -102t-87.5 -123t-91.5 -129v-537q0 -82 51 -82q38 0 80.5 29t82.5 78t72 96.5t62 101.5q14 27 44.5 33.5t48.5 -6.5zM733 1223v-283q119 174 149.5 228.5t30.5 91.5q0 131 -92 137q-28 0 -58 -58t-30 -116z
M248 1243v-362q67 112 112.5 217t55.5 159q25 134 -78 134q-33 0 -61.5 -44t-28.5 -104zM119 -461v326q-182 -218 -182 -340q0 -77 24 -117t70 -37q29 -3 58.5 51.5t29.5 116.5z" />
    <glyph glyph-name="integral.001" horiz-adv-x="1118" 
d="M342 -248q-106 0 -145 58q-13 17 -13 45q0 34 25.5 59t60.5 25q27 0 49 -15.5t31 -40.5q17 3 27 17q51 69 51 284q0 107 -14 490q-15 395 -15 475q0 157 25 270q32 114 100 185q90 96 232 96q55 0 114 -19q29 -12 46.5 -35t17.5 -51q0 -35 -25 -60.5t-59 -25.5
q-24 0 -51 19t-43 41q-87 0 -140 -56q-46 -51 -66 -135.5t-20 -228.5q0 -74 15 -469q14 -383 14 -496q0 -432 -217 -432z" />
    </font>
</defs>
</svg>
